<?xml version="1.0" encoding="utf-8" standalone="no"?>
<!DOCTYPE svg PUBLIC "-//W3C//DTD SVG 1.1//EN"
  "http://www.w3.org/Graphics/SVG/1.1/DTD/svg11.dtd">
<svg xmlns:xlink="http://www.w3.org/1999/xlink" width="180.710526pt" height="378.994737pt" viewBox="0 0 180.710526 378.994737" xmlns="http://www.w3.org/2000/svg" version="1.1">
 <metadata>
  <rdf:RDF xmlns:dc="http://purl.org/dc/elements/1.1/" xmlns:cc="http://creativecommons.org/ns#" xmlns:rdf="http://www.w3.org/1999/02/22-rdf-syntax-ns#">
   <cc:Work>
    <dc:type rdf:resource="http://purl.org/dc/dcmitype/StillImage"/>
    <dc:date>2024-03-15T02:11:31.124127</dc:date>
    <dc:format>image/svg+xml</dc:format>
    <dc:creator>
     <cc:Agent>
      <dc:title>Matplotlib v3.7.0, https://matplotlib.org/</dc:title>
     </cc:Agent>
    </dc:creator>
   </cc:Work>
  </rdf:RDF>
 </metadata>
 <defs>
  <style type="text/css">*{stroke-linejoin: round; stroke-linecap: butt}</style>
 </defs>
 <g id="figure_1">
  <g id="patch_1">
   <path d="M 0 378.994737 
L 180.710526 378.994737 
L 180.710526 0 
L 0 0 
z
" style="fill: #ffffff"/>
  </g>
  <g id="axes_1">
   <g id="line2d_1">
    <path d="M 72.394737 314.194737 
L 77.194737 314.194737 
" clip-path="url(#pc91695c8c0)" style="fill: none; stroke: #808080; stroke-width: 1.2; stroke-linecap: round"/>
   </g>
   <g id="line2d_2">
    <path d="M 72.394737 304.721053 
L 77.194737 304.721053 
" clip-path="url(#pc91695c8c0)" style="fill: none; stroke: #808080; stroke-width: 1.2; stroke-linecap: round"/>
   </g>
   <g id="line2d_3">
    <path d="M 72.394737 296.384211 
L 77.194737 296.384211 
" clip-path="url(#pc91695c8c0)" style="fill: none; stroke: #808080; stroke-width: 1.2; stroke-linecap: round"/>
   </g>
   <g id="line2d_4">
    <path d="M 72.394737 288.047368 
L 77.194737 288.047368 
" clip-path="url(#pc91695c8c0)" style="fill: none; stroke: #808080; stroke-width: 1.2; stroke-linecap: round"/>
   </g>
   <g id="line2d_5">
    <path d="M 72.394737 279.710526 
L 77.194737 279.710526 
" clip-path="url(#pc91695c8c0)" style="fill: none; stroke: #808080; stroke-width: 1.2; stroke-linecap: round"/>
   </g>
   <g id="line2d_6">
    <path d="M 72.394737 271.373684 
L 77.194737 271.373684 
" clip-path="url(#pc91695c8c0)" style="fill: none; stroke: #808080; stroke-width: 1.2; stroke-linecap: round"/>
   </g>
   <g id="line2d_7">
    <path d="M 72.394737 213.205263 
L 77.194737 213.205263 
" clip-path="url(#pc91695c8c0)" style="fill: none; stroke: #808080; stroke-width: 1.2; stroke-linecap: round"/>
   </g>
   <g id="line2d_8">
    <path d="M 72.394737 204.868421 
L 77.194737 204.868421 
" clip-path="url(#pc91695c8c0)" style="fill: none; stroke: #808080; stroke-width: 1.2; stroke-linecap: round"/>
   </g>
   <g id="line2d_9">
    <path d="M 72.394737 196.531579 
L 77.194737 196.531579 
" clip-path="url(#pc91695c8c0)" style="fill: none; stroke: #808080; stroke-width: 1.2; stroke-linecap: round"/>
   </g>
   <g id="line2d_10">
    <path d="M 72.394737 188.194737 
L 77.194737 188.194737 
" clip-path="url(#pc91695c8c0)" style="fill: none; stroke: #808080; stroke-width: 1.2; stroke-linecap: round"/>
   </g>
   <g id="line2d_11">
    <path d="M 72.394737 150.3 
L 77.194737 150.3 
" clip-path="url(#pc91695c8c0)" style="fill: none; stroke: #808080; stroke-width: 1.2; stroke-linecap: round"/>
   </g>
   <g id="line2d_12">
    <path d="M 72.394737 141.963158 
L 77.194737 141.963158 
" clip-path="url(#pc91695c8c0)" style="fill: none; stroke: #808080; stroke-width: 1.2; stroke-linecap: round"/>
   </g>
   <g id="line2d_13">
    <path d="M 72.394737 133.626316 
L 77.194737 133.626316 
" clip-path="url(#pc91695c8c0)" style="fill: none; stroke: #808080; stroke-width: 1.2; stroke-linecap: round"/>
   </g>
   <g id="line2d_14">
    <path d="M 72.394737 125.289474 
L 77.194737 125.289474 
" clip-path="url(#pc91695c8c0)" style="fill: none; stroke: #808080; stroke-width: 1.2; stroke-linecap: round"/>
   </g>
   <g id="line2d_15">
    <path d="M 72.394737 116.952632 
L 77.194737 116.952632 
" clip-path="url(#pc91695c8c0)" style="fill: none; stroke: #808080; stroke-width: 1.2; stroke-linecap: round"/>
   </g>
   <g id="line2d_16">
    <path d="M 97.02694 261.17306 
L 93.630955 264.569045 
" clip-path="url(#pc91695c8c0)" style="fill: none; stroke: #808080; stroke-width: 1.2; stroke-linecap: round"/>
   </g>
   <g id="line2d_17">
    <path d="M 102.947993 267.046744 
L 99.552007 270.44273 
" clip-path="url(#pc91695c8c0)" style="fill: none; stroke: #808080; stroke-width: 1.2; stroke-linecap: round"/>
   </g>
   <g id="LineCollection_1">
    <path d="M 67.594737 314.194737 
L 67.594737 309.457895 
L 67.594737 304.721053 
L 67.594737 300.552632 
L 67.594737 296.384211 
L 67.594737 292.215789 
L 67.594737 288.047368 
L 67.594737 283.878947 
L 67.594737 279.710526 
L 67.594737 275.542105 
L 67.594737 271.373684 
L 67.594737 261.521053 
L 67.594737 251.668421 
L 67.571053 241.460526 
L 67.547368 231.252632 
L 67.571053 222.228947 
L 67.594737 213.205263 
L 67.594737 209.036842 
L 67.594737 204.868421 
L 67.594737 200.7 
L 67.594737 196.531579 
L 67.594737 192.363158 
L 67.594737 188.194737 
L 67.523684 178.365789 
L 67.452632 168.536842 
L 67.523684 159.418421 
L 67.594737 150.3 
L 67.594737 146.131579 
L 67.594737 141.963158 
L 67.594737 137.794737 
L 67.594737 133.626316 
L 67.594737 129.457895 
L 67.594737 125.289474 
L 67.594737 121.121053 
L 67.594737 116.952632 
L 66.197368 112.594737 
L 64.8 108.236842 
L 67.5 104.518421 
L 70.2 100.8 
L 74.771053 100.8 
L 79.342105 100.8 
L 82.042105 104.518421 
L 84.742105 108.236842 
L 83.368421 112.594737 
L 81.994737 116.952632 
L 81.994737 121.121053 
L 81.994737 125.289474 
L 81.994737 129.457895 
L 81.994737 133.626316 
L 81.994737 137.794737 
L 81.994737 141.963158 
L 81.994737 146.131579 
L 81.994737 150.3 
L 85.168421 153.165789 
L 88.342105 156.031579 
L 90.710526 160.223684 
L 93.078947 164.415789 
L 93.078947 169.247368 
L 93.078947 174.078947 
L 90.710526 178.271053 
L 88.342105 182.463158 
L 85.168421 185.328947 
L 81.994737 188.194737 
L 81.994737 192.363158 
L 81.994737 196.531579 
L 81.994737 200.7 
L 81.994737 204.868421 
L 81.994737 209.036842 
L 81.994737 213.205263 
L 87.134211 215.431579 
L 92.273684 217.657895 
L 96.228947 221.684211 
L 100.184211 225.710526 
L 102.315789 230.897368 
L 104.447368 236.084211 
L 104.494737 241.697368 
L 104.542105 247.310526 
L 102.481579 252.544737 
L 100.421053 257.778947 
L 103.381579 260.715789 
L 106.342105 263.652632 
L 110.415789 265.760526 
L 114.489474 267.868421 
L 115.2 272.392105 
L 115.910526 276.915789 
L 112.665789 280.160526 
L 109.421053 283.405263 
L 104.897368 282.694737 
L 100.373684 281.984211 
L 98.265789 277.910526 
L 96.157895 273.836842 
L 93.197368 270.9 
L 90.236842 267.963158 
L 86.115789 269.668421 
L 81.994737 271.373684 
L 81.994737 275.542105 
L 81.994737 279.710526 
L 81.994737 283.878947 
L 81.994737 288.047368 
L 81.994737 292.215789 
L 81.994737 296.384211 
L 81.994737 300.552632 
L 81.994737 304.721053 
L 81.994737 309.457895 
L 81.994737 314.194737 
" clip-path="url(#pc91695c8c0)" style="fill: none; stroke: #808080"/>
   </g>
   <g id="text_1">
    <text style="fill: #262626; font: 9.6px 'Arial', 'DejaVu Sans', 'Liberation Sans', 'Bitstream Vera Sans', sans-serif; text-anchor: middle" x="90.355263" y="66" transform="rotate(-0 90.355263 66)">3e5c</text>
   </g>
   <g id="PathCollection_1">
    <defs>
     <path id="C0_0_73ce3761ee" d="M 0 2.5 
C 0.663008 2.5 1.29895 2.236584 1.767767 1.767767 
C 2.236584 1.29895 2.5 0.663008 2.5 -0 
C 2.5 -0.663008 2.236584 -1.29895 1.767767 -1.767767 
C 1.29895 -2.236584 0.663008 -2.5 0 -2.5 
C -0.663008 -2.5 -1.29895 -2.236584 -1.767767 -1.767767 
C -2.236584 -1.29895 -2.5 -0.663008 -2.5 0 
C -2.5 0.663008 -2.236584 1.29895 -1.767767 1.767767 
C -1.29895 2.236584 -0.663008 2.5 0 2.5 
z
"/>
    </defs>
    <g clip-path="url(#pc91695c8c0)">
     <use xlink:href="#C0_0_73ce3761ee" x="67.594737" y="314.194737" style="fill: #ffffff"/>
    </g>
    <g clip-path="url(#pc91695c8c0)">
     <use xlink:href="#C0_0_73ce3761ee" x="67.594737" y="304.721053" style="fill: #ffffff"/>
    </g>
    <g clip-path="url(#pc91695c8c0)">
     <use xlink:href="#C0_0_73ce3761ee" x="67.594737" y="296.384211" style="fill: #ffffff"/>
    </g>
    <g clip-path="url(#pc91695c8c0)">
     <use xlink:href="#C0_0_73ce3761ee" x="67.594737" y="288.047368" style="fill: #ffffff"/>
    </g>
    <g clip-path="url(#pc91695c8c0)">
     <use xlink:href="#C0_0_73ce3761ee" x="67.594737" y="279.710526" style="fill: #ffffff"/>
    </g>
    <g clip-path="url(#pc91695c8c0)">
     <use xlink:href="#C0_0_73ce3761ee" x="67.594737" y="271.373684" style="fill: #ffffff"/>
    </g>
    <g clip-path="url(#pc91695c8c0)">
     <use xlink:href="#C0_0_73ce3761ee" x="67.594737" y="251.668421" style="fill: #f66c00"/>
    </g>
    <g clip-path="url(#pc91695c8c0)">
     <use xlink:href="#C0_0_73ce3761ee" x="67.547368" y="231.252632" style="fill: #ffffff"/>
    </g>
    <g clip-path="url(#pc91695c8c0)">
     <use xlink:href="#C0_0_73ce3761ee" x="67.594737" y="213.205263" style="fill: #ffffff"/>
    </g>
    <g clip-path="url(#pc91695c8c0)">
     <use xlink:href="#C0_0_73ce3761ee" x="67.594737" y="204.868421" style="fill: #1c6f2e"/>
    </g>
    <g clip-path="url(#pc91695c8c0)">
     <use xlink:href="#C0_0_73ce3761ee" x="67.594737" y="196.531579" style="fill: #1c6f2e"/>
    </g>
    <g clip-path="url(#pc91695c8c0)">
     <use xlink:href="#C0_0_73ce3761ee" x="67.594737" y="188.194737" style="fill: #1c6f2e"/>
    </g>
    <g clip-path="url(#pc91695c8c0)">
     <use xlink:href="#C0_0_73ce3761ee" x="67.452632" y="168.536842" style="fill: #ffffff"/>
    </g>
    <g clip-path="url(#pc91695c8c0)">
     <use xlink:href="#C0_0_73ce3761ee" x="67.594737" y="150.3" style="fill: #ffffff"/>
    </g>
    <g clip-path="url(#pc91695c8c0)">
     <use xlink:href="#C0_0_73ce3761ee" x="67.594737" y="141.963158" style="fill: #ffffff"/>
    </g>
    <g clip-path="url(#pc91695c8c0)">
     <use xlink:href="#C0_0_73ce3761ee" x="67.594737" y="133.626316" style="fill: #ffffff"/>
    </g>
    <g clip-path="url(#pc91695c8c0)">
     <use xlink:href="#C0_0_73ce3761ee" x="67.594737" y="125.289474" style="fill: #ffffff"/>
    </g>
    <g clip-path="url(#pc91695c8c0)">
     <use xlink:href="#C0_0_73ce3761ee" x="67.594737" y="116.952632" style="fill: #ffffff"/>
    </g>
    <g clip-path="url(#pc91695c8c0)">
     <use xlink:href="#C0_0_73ce3761ee" x="64.8" y="108.236842" style="fill: #ffffff"/>
    </g>
    <g clip-path="url(#pc91695c8c0)">
     <use xlink:href="#C0_0_73ce3761ee" x="70.2" y="100.8" style="fill: #ffffff"/>
    </g>
    <g clip-path="url(#pc91695c8c0)">
     <use xlink:href="#C0_0_73ce3761ee" x="79.342105" y="100.8" style="fill: #ffffff"/>
    </g>
    <g clip-path="url(#pc91695c8c0)">
     <use xlink:href="#C0_0_73ce3761ee" x="84.742105" y="108.236842" style="fill: #ffffff"/>
    </g>
    <g clip-path="url(#pc91695c8c0)">
     <use xlink:href="#C0_0_73ce3761ee" x="81.994737" y="116.952632" style="fill: #ffffff"/>
    </g>
    <g clip-path="url(#pc91695c8c0)">
     <use xlink:href="#C0_0_73ce3761ee" x="81.994737" y="125.289474" style="fill: #ffffff"/>
    </g>
    <g clip-path="url(#pc91695c8c0)">
     <use xlink:href="#C0_0_73ce3761ee" x="81.994737" y="133.626316" style="fill: #ffffff"/>
    </g>
    <g clip-path="url(#pc91695c8c0)">
     <use xlink:href="#C0_0_73ce3761ee" x="81.994737" y="141.963158" style="fill: #ffffff"/>
    </g>
    <g clip-path="url(#pc91695c8c0)">
     <use xlink:href="#C0_0_73ce3761ee" x="81.994737" y="150.3" style="fill: #ffffff"/>
    </g>
    <g clip-path="url(#pc91695c8c0)">
     <use xlink:href="#C0_0_73ce3761ee" x="88.342105" y="156.031579" style="fill: #1c6f2e"/>
    </g>
    <g clip-path="url(#pc91695c8c0)">
     <use xlink:href="#C0_0_73ce3761ee" x="93.078947" y="164.415789" style="fill: #f66c00"/>
    </g>
    <g clip-path="url(#pc91695c8c0)">
     <use xlink:href="#C0_0_73ce3761ee" x="93.078947" y="174.078947" style="fill: #ffffff"/>
    </g>
    <g clip-path="url(#pc91695c8c0)">
     <use xlink:href="#C0_0_73ce3761ee" x="88.342105" y="182.463158" style="fill: #1c6f2e"/>
    </g>
    <g clip-path="url(#pc91695c8c0)">
     <use xlink:href="#C0_0_73ce3761ee" x="81.994737" y="188.194737" style="fill: #1c6f2e"/>
    </g>
    <g clip-path="url(#pc91695c8c0)">
     <use xlink:href="#C0_0_73ce3761ee" x="81.994737" y="196.531579" style="fill: #1c6f2e"/>
    </g>
    <g clip-path="url(#pc91695c8c0)">
     <use xlink:href="#C0_0_73ce3761ee" x="81.994737" y="204.868421" style="fill: #1c6f2e"/>
    </g>
    <g clip-path="url(#pc91695c8c0)">
     <use xlink:href="#C0_0_73ce3761ee" x="81.994737" y="213.205263" style="fill: #ffffff"/>
    </g>
    <g clip-path="url(#pc91695c8c0)">
     <use xlink:href="#C0_0_73ce3761ee" x="92.273684" y="217.657895" style="fill: #f66c00"/>
    </g>
    <g clip-path="url(#pc91695c8c0)">
     <use xlink:href="#C0_0_73ce3761ee" x="100.184211" y="225.710526" style="fill: #f66c00"/>
    </g>
    <g clip-path="url(#pc91695c8c0)">
     <use xlink:href="#C0_0_73ce3761ee" x="104.447368" y="236.084211" style="fill: #f66c00"/>
    </g>
    <g clip-path="url(#pc91695c8c0)">
     <use xlink:href="#C0_0_73ce3761ee" x="104.542105" y="247.310526" style="fill: #f66c00"/>
    </g>
    <g clip-path="url(#pc91695c8c0)">
     <use xlink:href="#C0_0_73ce3761ee" x="100.421053" y="257.778947" style="fill: #ffffff"/>
    </g>
    <g clip-path="url(#pc91695c8c0)">
     <use xlink:href="#C0_0_73ce3761ee" x="106.342105" y="263.652632" style="fill: #ffffff"/>
    </g>
    <g clip-path="url(#pc91695c8c0)">
     <use xlink:href="#C0_0_73ce3761ee" x="114.489474" y="267.868421" style="fill: #ffffff"/>
    </g>
    <g clip-path="url(#pc91695c8c0)">
     <use xlink:href="#C0_0_73ce3761ee" x="115.910526" y="276.915789" style="fill: #ffffff"/>
    </g>
    <g clip-path="url(#pc91695c8c0)">
     <use xlink:href="#C0_0_73ce3761ee" x="109.421053" y="283.405263" style="fill: #ffffff"/>
    </g>
    <g clip-path="url(#pc91695c8c0)">
     <use xlink:href="#C0_0_73ce3761ee" x="100.373684" y="281.984211" style="fill: #ffffff"/>
    </g>
    <g clip-path="url(#pc91695c8c0)">
     <use xlink:href="#C0_0_73ce3761ee" x="96.157895" y="273.836842" style="fill: #ffffff"/>
    </g>
    <g clip-path="url(#pc91695c8c0)">
     <use xlink:href="#C0_0_73ce3761ee" x="90.236842" y="267.963158" style="fill: #f66c00"/>
    </g>
    <g clip-path="url(#pc91695c8c0)">
     <use xlink:href="#C0_0_73ce3761ee" x="81.994737" y="271.373684" style="fill: #f66c00"/>
    </g>
    <g clip-path="url(#pc91695c8c0)">
     <use xlink:href="#C0_0_73ce3761ee" x="81.994737" y="279.710526" style="fill: #ffffff"/>
    </g>
    <g clip-path="url(#pc91695c8c0)">
     <use xlink:href="#C0_0_73ce3761ee" x="81.994737" y="288.047368" style="fill: #ffffff"/>
    </g>
    <g clip-path="url(#pc91695c8c0)">
     <use xlink:href="#C0_0_73ce3761ee" x="81.994737" y="296.384211" style="fill: #ffffff"/>
    </g>
    <g clip-path="url(#pc91695c8c0)">
     <use xlink:href="#C0_0_73ce3761ee" x="81.994737" y="304.721053" style="fill: #ffffff"/>
    </g>
    <g clip-path="url(#pc91695c8c0)">
     <use xlink:href="#C0_0_73ce3761ee" x="81.994737" y="314.194737" style="fill: #ffffff"/>
    </g>
   </g>
   <g id="PathCollection_2">
    <defs>
     <path id="C1_0_9fc322de24" d="M 0.986573 1.030882 
L 0.986573 0.25439 
L 0.347655 0.25439 
L 0.347655 -0.067238 
L 1.37389 -0.067238 
L 1.37389 1.174654 
Q 1.147697 1.335158 0.874406 1.417579 
Q 0.601735 1.5 0.291882 1.5 
Q -0.386077 1.5 -0.769056 1.104007 
Q -1.151415 0.707395 -1.151415 0.00093 
Q -1.151415 -0.708015 -0.769056 -1.104007 
Q -0.386077 -1.5 0.291882 -1.5 
Q 0.574468 -1.5 0.829168 -1.429973 
Q 1.083867 -1.360566 1.298905 -1.22485 
L 1.298905 -0.808407 
Q 1.082008 -0.99246 0.837843 -1.085416 
Q 0.593679 -1.178372 0.324726 -1.178372 
Q -0.206362 -1.178372 -0.472836 -0.882152 
Q -0.73869 -0.585933 -0.73869 0.00093 
Q -0.73869 0.585933 -0.472836 0.882152 
Q -0.206362 1.178372 0.324726 1.178372 
Q 0.531708 1.178372 0.694071 1.142429 
Q 0.857054 1.106486 0.986573 1.030882 
z
"/>
    </defs>
    <g clip-path="url(#pc91695c8c0)">
     <use xlink:href="#C1_0_9fc322de24" x="67.594737" y="251.668421" style="fill: #ffffff; stroke: #ffffff; stroke-width: 0.3"/>
    </g>
    <g clip-path="url(#pc91695c8c0)">
     <use xlink:href="#C1_0_9fc322de24" x="67.594737" y="196.531579" style="fill: #ffffff; stroke: #ffffff; stroke-width: 0.3"/>
    </g>
    <g clip-path="url(#pc91695c8c0)">
     <use xlink:href="#C1_0_9fc322de24" x="67.594737" y="188.194737" style="fill: #ffffff; stroke: #ffffff; stroke-width: 0.3"/>
    </g>
    <g clip-path="url(#pc91695c8c0)">
     <use xlink:href="#C1_0_9fc322de24" x="67.594737" y="141.963158" style="stroke: #000000; stroke-width: 0.3"/>
    </g>
    <g clip-path="url(#pc91695c8c0)">
     <use xlink:href="#C1_0_9fc322de24" x="67.594737" y="133.626316" style="stroke: #000000; stroke-width: 0.3"/>
    </g>
    <g clip-path="url(#pc91695c8c0)">
     <use xlink:href="#C1_0_9fc322de24" x="67.594737" y="116.952632" style="stroke: #000000; stroke-width: 0.3"/>
    </g>
    <g clip-path="url(#pc91695c8c0)">
     <use xlink:href="#C1_0_9fc322de24" x="64.8" y="108.236842" style="stroke: #000000; stroke-width: 0.3"/>
    </g>
    <g clip-path="url(#pc91695c8c0)">
     <use xlink:href="#C1_0_9fc322de24" x="81.994737" y="125.289474" style="stroke: #000000; stroke-width: 0.3"/>
    </g>
    <g clip-path="url(#pc91695c8c0)">
     <use xlink:href="#C1_0_9fc322de24" x="88.342105" y="156.031579" style="fill: #ffffff; stroke: #ffffff; stroke-width: 0.3"/>
    </g>
    <g clip-path="url(#pc91695c8c0)">
     <use xlink:href="#C1_0_9fc322de24" x="88.342105" y="182.463158" style="fill: #ffffff; stroke: #ffffff; stroke-width: 0.3"/>
    </g>
    <g clip-path="url(#pc91695c8c0)">
     <use xlink:href="#C1_0_9fc322de24" x="92.273684" y="217.657895" style="fill: #ffffff; stroke: #ffffff; stroke-width: 0.3"/>
    </g>
    <g clip-path="url(#pc91695c8c0)">
     <use xlink:href="#C1_0_9fc322de24" x="114.489474" y="267.868421" style="stroke: #000000; stroke-width: 0.3"/>
    </g>
    <g clip-path="url(#pc91695c8c0)">
     <use xlink:href="#C1_0_9fc322de24" x="96.157895" y="273.836842" style="stroke: #000000; stroke-width: 0.3"/>
    </g>
    <g clip-path="url(#pc91695c8c0)">
     <use xlink:href="#C1_0_9fc322de24" x="90.236842" y="267.963158" style="fill: #ffffff; stroke: #ffffff; stroke-width: 0.3"/>
    </g>
    <g clip-path="url(#pc91695c8c0)">
     <use xlink:href="#C1_0_9fc322de24" x="81.994737" y="271.373684" style="fill: #ffffff; stroke: #ffffff; stroke-width: 0.3"/>
    </g>
    <g clip-path="url(#pc91695c8c0)">
     <use xlink:href="#C1_0_9fc322de24" x="81.994737" y="279.710526" style="stroke: #000000; stroke-width: 0.3"/>
    </g>
    <g clip-path="url(#pc91695c8c0)">
     <use xlink:href="#C1_0_9fc322de24" x="81.994737" y="288.047368" style="stroke: #000000; stroke-width: 0.3"/>
    </g>
   </g>
   <g id="PathCollection_3">
    <defs>
     <path id="C2_0_20bf7c9871" d="M -0.95102 -1.5 
L -0.550557 -1.5 
L -0.550557 0.287892 
Q -0.550557 0.760879 -0.379651 0.968993 
Q -0.208114 1.176477 0.176582 1.176477 
Q 0.558756 1.176477 0.730292 0.968993 
Q 0.901829 0.760879 0.901829 0.287892 
L 0.901829 -1.5 
L 1.301661 -1.5 
L 1.301661 0.337082 
Q 1.301661 0.912235 1.016607 1.206117 
Q 0.732184 1.5 0.176582 1.5 
Q -0.381543 1.5 -0.666597 1.206117 
Q -0.95102 0.912235 -0.95102 0.337082 
L -0.95102 -1.5 
z
"/>
    </defs>
    <g clip-path="url(#pc91695c8c0)">
     <use xlink:href="#C2_0_20bf7c9871" x="67.594737" y="304.721053" style="stroke: #000000; stroke-width: 0.3"/>
    </g>
    <g clip-path="url(#pc91695c8c0)">
     <use xlink:href="#C2_0_20bf7c9871" x="67.594737" y="296.384211" style="stroke: #000000; stroke-width: 0.3"/>
    </g>
    <g clip-path="url(#pc91695c8c0)">
     <use xlink:href="#C2_0_20bf7c9871" x="67.594737" y="150.3" style="stroke: #000000; stroke-width: 0.3"/>
    </g>
    <g clip-path="url(#pc91695c8c0)">
     <use xlink:href="#C2_0_20bf7c9871" x="93.078947" y="174.078947" style="stroke: #000000; stroke-width: 0.3"/>
    </g>
    <g clip-path="url(#pc91695c8c0)">
     <use xlink:href="#C2_0_20bf7c9871" x="81.994737" y="204.868421" style="fill: #ffffff; stroke: #ffffff; stroke-width: 0.3"/>
    </g>
    <g clip-path="url(#pc91695c8c0)">
     <use xlink:href="#C2_0_20bf7c9871" x="81.994737" y="213.205263" style="stroke: #000000; stroke-width: 0.3"/>
    </g>
    <g clip-path="url(#pc91695c8c0)">
     <use xlink:href="#C2_0_20bf7c9871" x="100.184211" y="225.710526" style="fill: #ffffff; stroke: #ffffff; stroke-width: 0.3"/>
    </g>
    <g clip-path="url(#pc91695c8c0)">
     <use xlink:href="#C2_0_20bf7c9871" x="81.994737" y="314.194737" style="stroke: #000000; stroke-width: 0.3"/>
    </g>
   </g>
   <g id="PathCollection_4"/>
   <g id="PathCollection_5">
    <defs>
     <path id="C3_0_fb8f2b5249" d="M 0.016395 -1.100086 
L -0.534612 0.392842 
L 0.568688 0.392842 
L 0.016395 -1.100086 
z
M -0.213138 -1.5 
L 0.247214 -1.5 
L 1.390377 1.5 
L 0.968603 1.5 
L 0.695349 0.73039 
L -0.656772 0.73039 
L -0.930026 1.5 
L -1.35823 1.5 
L -0.213138 -1.5 
z
"/>
    </defs>
    <g clip-path="url(#pc91695c8c0)">
     <use xlink:href="#C3_0_fb8f2b5249" x="67.547368" y="231.252632" style="stroke: #000000; stroke-width: 0.3"/>
    </g>
    <g clip-path="url(#pc91695c8c0)">
     <use xlink:href="#C3_0_fb8f2b5249" x="67.594737" y="213.205263" style="stroke: #000000; stroke-width: 0.3"/>
    </g>
    <g clip-path="url(#pc91695c8c0)">
     <use xlink:href="#C3_0_fb8f2b5249" x="67.594737" y="204.868421" style="fill: #ffffff; stroke: #ffffff; stroke-width: 0.3"/>
    </g>
    <g clip-path="url(#pc91695c8c0)">
     <use xlink:href="#C3_0_fb8f2b5249" x="67.452632" y="168.536842" style="stroke: #000000; stroke-width: 0.3"/>
    </g>
    <g clip-path="url(#pc91695c8c0)">
     <use xlink:href="#C3_0_fb8f2b5249" x="70.2" y="100.8" style="stroke: #000000; stroke-width: 0.3"/>
    </g>
    <g clip-path="url(#pc91695c8c0)">
     <use xlink:href="#C3_0_fb8f2b5249" x="79.342105" y="100.8" style="stroke: #000000; stroke-width: 0.3"/>
    </g>
    <g clip-path="url(#pc91695c8c0)">
     <use xlink:href="#C3_0_fb8f2b5249" x="84.742105" y="108.236842" style="stroke: #000000; stroke-width: 0.3"/>
    </g>
    <g clip-path="url(#pc91695c8c0)">
     <use xlink:href="#C3_0_fb8f2b5249" x="81.994737" y="150.3" style="stroke: #000000; stroke-width: 0.3"/>
    </g>
    <g clip-path="url(#pc91695c8c0)">
     <use xlink:href="#C3_0_fb8f2b5249" x="93.078947" y="164.415789" style="fill: #ffffff; stroke: #ffffff; stroke-width: 0.3"/>
    </g>
    <g clip-path="url(#pc91695c8c0)">
     <use xlink:href="#C3_0_fb8f2b5249" x="104.447368" y="236.084211" style="fill: #ffffff; stroke: #ffffff; stroke-width: 0.3"/>
    </g>
    <g clip-path="url(#pc91695c8c0)">
     <use xlink:href="#C3_0_fb8f2b5249" x="104.542105" y="247.310526" style="fill: #ffffff; stroke: #ffffff; stroke-width: 0.3"/>
    </g>
    <g clip-path="url(#pc91695c8c0)">
     <use xlink:href="#C3_0_fb8f2b5249" x="115.910526" y="276.915789" style="stroke: #000000; stroke-width: 0.3"/>
    </g>
    <g clip-path="url(#pc91695c8c0)">
     <use xlink:href="#C3_0_fb8f2b5249" x="109.421053" y="283.405263" style="stroke: #000000; stroke-width: 0.3"/>
    </g>
    <g clip-path="url(#pc91695c8c0)">
     <use xlink:href="#C3_0_fb8f2b5249" x="100.373684" y="281.984211" style="stroke: #000000; stroke-width: 0.3"/>
    </g>
    <g clip-path="url(#pc91695c8c0)">
     <use xlink:href="#C3_0_fb8f2b5249" x="81.994737" y="296.384211" style="stroke: #000000; stroke-width: 0.3"/>
    </g>
    <g clip-path="url(#pc91695c8c0)">
     <use xlink:href="#C3_0_fb8f2b5249" x="81.994737" y="304.721053" style="stroke: #000000; stroke-width: 0.3"/>
    </g>
   </g>
   <g id="PathCollection_6">
    <defs>
     <path id="C4_0_13abfdd5ff" d="M 1.277215 -1.22485 
L 1.277215 -0.812745 
Q 1.079529 -0.996798 0.855815 -1.087275 
Q 0.632101 -1.178372 0.3805 -1.178372 
Q -0.115265 -1.178372 -0.378641 -0.875336 
Q -0.642016 -0.572299 -0.642016 0.00093 
Q -0.642016 0.572299 -0.378641 0.875336 
Q -0.115265 1.178372 0.3805 1.178372 
Q 0.632101 1.178372 0.855815 1.087275 
Q 1.079529 0.996178 1.277215 0.812126 
L 1.277215 1.221132 
Q 1.072093 1.360566 0.842181 1.430593 
Q 0.61289 1.5 0.357571 1.5 
Q -0.299318 1.5 -0.677339 1.09843 
Q -1.054741 0.69624 -1.054741 0.00093 
Q -1.054741 -0.69624 -0.677339 -1.09781 
Q -0.299318 -1.5 0.357571 -1.5 
Q 0.616608 -1.5 0.8459 -1.431213 
Q 1.075811 -1.362425 1.277215 -1.22485 
z
"/>
    </defs>
    <g clip-path="url(#pc91695c8c0)">
     <use xlink:href="#C4_0_13abfdd5ff" x="67.594737" y="288.047368" style="stroke: #000000; stroke-width: 0.3"/>
    </g>
    <g clip-path="url(#pc91695c8c0)">
     <use xlink:href="#C4_0_13abfdd5ff" x="67.594737" y="279.710526" style="stroke: #000000; stroke-width: 0.3"/>
    </g>
    <g clip-path="url(#pc91695c8c0)">
     <use xlink:href="#C4_0_13abfdd5ff" x="67.594737" y="271.373684" style="stroke: #000000; stroke-width: 0.3"/>
    </g>
    <g clip-path="url(#pc91695c8c0)">
     <use xlink:href="#C4_0_13abfdd5ff" x="67.594737" y="125.289474" style="stroke: #000000; stroke-width: 0.3"/>
    </g>
    <g clip-path="url(#pc91695c8c0)">
     <use xlink:href="#C4_0_13abfdd5ff" x="81.994737" y="116.952632" style="stroke: #000000; stroke-width: 0.3"/>
    </g>
    <g clip-path="url(#pc91695c8c0)">
     <use xlink:href="#C4_0_13abfdd5ff" x="81.994737" y="133.626316" style="stroke: #000000; stroke-width: 0.3"/>
    </g>
    <g clip-path="url(#pc91695c8c0)">
     <use xlink:href="#C4_0_13abfdd5ff" x="81.994737" y="141.963158" style="stroke: #000000; stroke-width: 0.3"/>
    </g>
    <g clip-path="url(#pc91695c8c0)">
     <use xlink:href="#C4_0_13abfdd5ff" x="81.994737" y="188.194737" style="fill: #ffffff; stroke: #ffffff; stroke-width: 0.3"/>
    </g>
    <g clip-path="url(#pc91695c8c0)">
     <use xlink:href="#C4_0_13abfdd5ff" x="81.994737" y="196.531579" style="fill: #ffffff; stroke: #ffffff; stroke-width: 0.3"/>
    </g>
    <g clip-path="url(#pc91695c8c0)">
     <use xlink:href="#C4_0_13abfdd5ff" x="100.421053" y="257.778947" style="stroke: #000000; stroke-width: 0.3"/>
    </g>
    <g clip-path="url(#pc91695c8c0)">
     <use xlink:href="#C4_0_13abfdd5ff" x="106.342105" y="263.652632" style="stroke: #000000; stroke-width: 0.3"/>
    </g>
   </g>
   <g id="PathCollection_7">
    <defs>
     <path id="m7083b8a54c" d="M 0.711394 -0.405595 
Q 0.711394 -0.78708 0.553917 -0.996439 
Q 0.39705 -1.206409 0.112614 -1.206409 
Q -0.169379 -1.206409 -0.326857 -0.996439 
Q -0.484334 -0.78708 -0.484334 -0.405595 
Q -0.484334 -0.025941 -0.326857 0.184028 
Q -0.169379 0.393998 0.112614 0.393998 
Q 0.39705 0.393998 0.553917 0.184028 
Q 0.711394 -0.025941 0.711394 -0.405595 
z
M 1.06236 0.422686 
Q 1.06236 0.967752 0.820041 1.233876 
Q 0.578332 1.5 0.078433 1.5 
Q -0.106511 1.5 -0.270702 1.472533 
Q -0.434893 1.445066 -0.589318 1.387691 
L -0.589318 1.04649 
Q -0.434893 1.130112 -0.28413 1.169786 
Q -0.133367 1.210071 0.022889 1.210071 
Q 0.368362 1.210071 0.539878 1.03001 
Q 0.711394 0.849949 0.711394 0.485554 
L 0.711394 0.311597 
Q 0.602747 0.500814 0.433062 0.594201 
Q 0.263377 0.687589 0.026551 0.687589 
Q -0.365921 0.687589 -0.606409 0.388505 
Q -0.846897 0.08881 -0.846897 -0.405595 
Q -0.846897 -0.901221 -0.606409 -1.200305 
Q -0.365921 -1.5 0.026551 -1.5 
Q 0.263377 -1.5 0.433062 -1.406612 
Q 0.602747 -1.313225 0.711394 -1.124619 
L 0.711394 -1.448728 
L 1.06236 -1.448728 
L 1.06236 0.422686 
z
" style="stroke: #000000; stroke-width: 0.3"/>
    </defs>
    <g clip-path="url(#pc91695c8c0)">
     <use xlink:href="#m7083b8a54c" x="67.594737" y="314.194737" style="stroke: #000000; stroke-width: 0.3"/>
    </g>
   </g>
   <g id="PathCollection_8"/>
   <g id="PathCollection_9"/>
   <g id="PathCollection_10"/>
   <g id="PathCollection_11"/>
  </g>
 </g>
 <defs>
  <clipPath id="pc91695c8c0">
   <rect x="36" y="72" width="108.710526" height="270.994737"/>
  </clipPath>
 </defs>
</svg>
