<?xml version="1.0" encoding="utf-8" standalone="no"?>
<!DOCTYPE svg PUBLIC "-//W3C//DTD SVG 1.1//EN"
  "http://www.w3.org/Graphics/SVG/1.1/DTD/svg11.dtd">
<svg xmlns:xlink="http://www.w3.org/1999/xlink" width="245.652632pt" height="262.089474pt" viewBox="0 0 245.652632 262.089474" xmlns="http://www.w3.org/2000/svg" version="1.1">
 <metadata>
  <rdf:RDF xmlns:dc="http://purl.org/dc/elements/1.1/" xmlns:cc="http://creativecommons.org/ns#" xmlns:rdf="http://www.w3.org/1999/02/22-rdf-syntax-ns#">
   <cc:Work>
    <dc:type rdf:resource="http://purl.org/dc/dcmitype/StillImage"/>
    <dc:date>2024-03-15T02:11:45.391377</dc:date>
    <dc:format>image/svg+xml</dc:format>
    <dc:creator>
     <cc:Agent>
      <dc:title>Matplotlib v3.7.0, https://matplotlib.org/</dc:title>
     </cc:Agent>
    </dc:creator>
   </cc:Work>
  </rdf:RDF>
 </metadata>
 <defs>
  <style type="text/css">*{stroke-linejoin: round; stroke-linecap: butt}</style>
 </defs>
 <g id="figure_1">
  <g id="patch_1">
   <path d="M 0 262.089474 
L 245.652632 262.089474 
L 245.652632 0 
L 0 0 
z
" style="fill: #ffffff"/>
  </g>
  <g id="axes_1">
   <g id="line2d_1">
    <path d="M 122.510121 155.57366 
L 122.526721 160.752656 
" clip-path="url(#pd4fd328d15)" style="fill: none; stroke: #808080; stroke-width: 1.2; stroke-linecap: round"/>
   </g>
   <g id="line2d_2">
    <path d="M 130.878947 155.573684 
L 130.878947 160.752632 
" clip-path="url(#pd4fd328d15)" style="fill: none; stroke: #808080; stroke-width: 1.2; stroke-linecap: round"/>
   </g>
   <g id="line2d_3">
    <path d="M 140.680531 155.359647 
L 149.308943 183.277195 
" clip-path="url(#pd4fd328d15)" style="fill: none; stroke: #808080; stroke-width: 1.2; stroke-linecap: round"/>
   </g>
   <g id="line2d_4">
    <path d="M 147.243542 155.556667 
L 144.403826 189.190701 
" clip-path="url(#pd4fd328d15)" style="fill: none; stroke: #808080; stroke-width: 1.2; stroke-linecap: round"/>
   </g>
   <g id="line2d_5">
    <path d="M 160.831579 150.821053 
L 165.631579 150.821053 
" clip-path="url(#pd4fd328d15)" style="fill: none; stroke: #808080; stroke-width: 1.2; stroke-linecap: round"/>
   </g>
   <g id="line2d_6">
    <path d="M 160.831579 142.484211 
L 165.631579 142.484211 
" clip-path="url(#pd4fd328d15)" style="fill: none; stroke: #808080; stroke-width: 1.2; stroke-linecap: round"/>
   </g>
   <g id="line2d_7">
    <path d="M 160.831579 134.147368 
L 165.631579 134.147368 
" clip-path="url(#pd4fd328d15)" style="fill: none; stroke: #808080; stroke-width: 1.2; stroke-linecap: round"/>
   </g>
   <g id="line2d_8">
    <path d="M 160.831579 125.810526 
L 165.631579 125.810526 
" clip-path="url(#pd4fd328d15)" style="fill: none; stroke: #808080; stroke-width: 1.2; stroke-linecap: round"/>
   </g>
   <g id="line2d_9">
    <path d="M 160.831579 117.473684 
L 165.631579 117.473684 
" clip-path="url(#pd4fd328d15)" style="fill: none; stroke: #808080; stroke-width: 1.2; stroke-linecap: round"/>
   </g>
   <g id="line2d_10">
    <path d="M 160.831579 109.136842 
L 165.631579 109.136842 
" clip-path="url(#pd4fd328d15)" style="fill: none; stroke: #808080; stroke-width: 1.2; stroke-linecap: round"/>
   </g>
   <g id="line2d_11">
    <path d="M 160.831579 100.8 
L 165.631579 100.8 
" clip-path="url(#pd4fd328d15)" style="fill: none; stroke: #808080; stroke-width: 1.2; stroke-linecap: round"/>
   </g>
   <g id="line2d_12">
    <path d="M 180.852632 170.352632 
L 180.852632 175.152632 
" clip-path="url(#pd4fd328d15)" style="fill: none; stroke: #808080; stroke-width: 1.2; stroke-linecap: round"/>
   </g>
   <g id="line2d_13">
    <path d="M 172.515789 170.352632 
L 172.515789 175.152632 
" clip-path="url(#pd4fd328d15)" style="fill: none; stroke: #808080; stroke-width: 1.2; stroke-linecap: round"/>
   </g>
   <g id="line2d_14">
    <path d="M 164.178947 170.352632 
L 164.178947 175.152632 
" clip-path="url(#pd4fd328d15)" style="fill: none; stroke: #808080; stroke-width: 1.2; stroke-linecap: round"/>
   </g>
   <g id="line2d_15">
    <path d="M 155.842105 170.352632 
L 155.842105 175.152632 
" clip-path="url(#pd4fd328d15)" style="fill: none; stroke: #808080; stroke-width: 1.2; stroke-linecap: round"/>
   </g>
   <g id="line2d_16">
    <path d="M 105.915789 170.352632 
L 105.915789 175.152632 
" clip-path="url(#pd4fd328d15)" style="fill: none; stroke: #808080; stroke-width: 1.2; stroke-linecap: round"/>
   </g>
   <g id="line2d_17">
    <path d="M 97.578947 170.352632 
L 97.578947 175.152632 
" clip-path="url(#pd4fd328d15)" style="fill: none; stroke: #808080; stroke-width: 1.2; stroke-linecap: round"/>
   </g>
   <g id="line2d_18">
    <path d="M 89.242105 170.352632 
L 89.242105 175.152632 
" clip-path="url(#pd4fd328d15)" style="fill: none; stroke: #808080; stroke-width: 1.2; stroke-linecap: round"/>
   </g>
   <g id="line2d_19">
    <path d="M 80.905263 170.352632 
L 80.905263 175.152632 
" clip-path="url(#pd4fd328d15)" style="fill: none; stroke: #808080; stroke-width: 1.2; stroke-linecap: round"/>
   </g>
   <g id="LineCollection_1">
    <path d="M 122.494737 150.773684 
L 126.686842 150.773684 
L 130.878947 150.773684 
L 135.071053 150.773684 
L 139.263158 150.773684 
L 143.455263 150.773684 
L 147.647368 150.773684 
L 151.839474 150.797368 
L 156.031579 150.821053 
L 156.031579 146.652632 
L 156.031579 142.484211 
L 156.031579 138.315789 
L 156.031579 134.147368 
L 156.031579 129.978947 
L 156.031579 125.810526 
L 156.031579 121.642105 
L 156.031579 117.473684 
L 156.031579 113.305263 
L 156.031579 109.136842 
L 156.031579 104.968421 
L 156.031579 100.8 
L 163.231579 100.8 
L 170.431579 100.8 
L 170.431579 104.968421 
L 170.431579 109.136842 
L 170.431579 113.305263 
L 170.431579 117.473684 
L 170.431579 121.642105 
L 170.431579 125.810526 
L 170.431579 129.978947 
L 170.431579 134.147368 
L 170.431579 138.315789 
L 170.431579 142.484211 
L 170.431579 146.652632 
L 170.431579 150.821053 
L 175.642105 158.186842 
L 180.852632 165.552632 
L 176.684211 165.552632 
L 172.515789 165.552632 
L 168.347368 165.552632 
L 164.178947 165.552632 
L 160.010526 165.552632 
L 155.842105 165.552632 
L 151.673684 165.552632 
L 147.505263 165.552632 
L 143.360526 165.552632 
L 139.215789 165.552632 
L 135.047368 165.552632 
L 130.878947 165.552632 
L 126.710526 165.552632 
L 122.542105 165.552632 
L 118.397368 165.552632 
L 114.252632 165.552632 
L 110.084211 165.552632 
L 105.915789 165.552632 
L 101.747368 165.552632 
L 97.578947 165.552632 
L 93.410526 165.552632 
L 89.242105 165.552632 
L 85.073684 165.552632 
L 80.905263 165.552632 
L 76.547368 164.155263 
L 72.189474 162.757895 
L 68.494737 165.457895 
L 64.8 168.157895 
L 64.8 172.752632 
L 64.8 177.347368 
L 68.494737 180.047368 
L 72.189474 182.747368 
L 76.547368 181.35 
L 80.905263 179.952632 
L 85.073684 179.952632 
L 89.242105 179.952632 
L 93.410526 179.952632 
L 97.578947 179.952632 
L 101.747368 179.952632 
L 105.915789 179.952632 
L 108.45 183.907895 
L 110.984211 187.863158 
L 114.371053 190.918421 
L 117.757895 193.973684 
L 122.021053 195.631579 
L 126.284211 197.289474 
L 130.855263 197.289474 
L 135.426316 197.289474 
L 139.713158 195.631579 
L 144 193.973684 
L 147.363158 190.918421 
L 150.726316 187.863158 
L 153.284211 183.907895 
L 155.842105 179.952632 
L 160.010526 179.952632 
L 164.178947 179.952632 
L 168.347368 179.952632 
L 172.515789 179.952632 
L 176.684211 179.952632 
L 180.852632 179.952632 
" clip-path="url(#pd4fd328d15)" style="fill: none; stroke: #808080"/>
   </g>
   <g id="text_1">
    <text style="fill: #262626; font: 9.6px 'Arial', 'DejaVu Sans', 'Liberation Sans', 'Bitstream Vera Sans', sans-serif; text-anchor: middle" x="122.826316" y="66" transform="rotate(-0 122.826316 66)">1ykv</text>
   </g>
   <g id="PathCollection_1">
    <defs>
     <path id="C0_0_511a1888a7" d="M 0 2.5 
C 0.663008 2.5 1.29895 2.236584 1.767767 1.767767 
C 2.236584 1.29895 2.5 0.663008 2.5 -0 
C 2.5 -0.663008 2.236584 -1.29895 1.767767 -1.767767 
C 1.29895 -2.236584 0.663008 -2.5 0 -2.5 
C -0.663008 -2.5 -1.29895 -2.236584 -1.767767 -1.767767 
C -2.236584 -1.29895 -2.5 -0.663008 -2.5 0 
C -2.5 0.663008 -2.236584 1.29895 -1.767767 1.767767 
C -1.29895 2.236584 -0.663008 2.5 0 2.5 
z
"/>
    </defs>
    <g clip-path="url(#pd4fd328d15)">
     <use xlink:href="#C0_0_511a1888a7" x="122.494737" y="150.773684" style="fill: #ffffff"/>
    </g>
    <g clip-path="url(#pd4fd328d15)">
     <use xlink:href="#C0_0_511a1888a7" x="130.878947" y="150.773684" style="fill: #f66c00"/>
    </g>
    <g clip-path="url(#pd4fd328d15)">
     <use xlink:href="#C0_0_511a1888a7" x="139.263158" y="150.773684" style="fill: #f66c00"/>
    </g>
    <g clip-path="url(#pd4fd328d15)">
     <use xlink:href="#C0_0_511a1888a7" x="147.647368" y="150.773684" style="fill: #ffffff"/>
    </g>
    <g clip-path="url(#pd4fd328d15)">
     <use xlink:href="#C0_0_511a1888a7" x="156.031579" y="150.821053" style="fill: #ffffff"/>
    </g>
    <g clip-path="url(#pd4fd328d15)">
     <use xlink:href="#C0_0_511a1888a7" x="156.031579" y="142.484211" style="fill: #ffffff"/>
    </g>
    <g clip-path="url(#pd4fd328d15)">
     <use xlink:href="#C0_0_511a1888a7" x="156.031579" y="134.147368" style="fill: #ffffff"/>
    </g>
    <g clip-path="url(#pd4fd328d15)">
     <use xlink:href="#C0_0_511a1888a7" x="156.031579" y="125.810526" style="fill: #ffffff"/>
    </g>
    <g clip-path="url(#pd4fd328d15)">
     <use xlink:href="#C0_0_511a1888a7" x="156.031579" y="117.473684" style="fill: #ffffff"/>
    </g>
    <g clip-path="url(#pd4fd328d15)">
     <use xlink:href="#C0_0_511a1888a7" x="156.031579" y="109.136842" style="fill: #ffffff"/>
    </g>
    <g clip-path="url(#pd4fd328d15)">
     <use xlink:href="#C0_0_511a1888a7" x="156.031579" y="100.8" style="fill: #ffffff"/>
    </g>
    <g clip-path="url(#pd4fd328d15)">
     <use xlink:href="#C0_0_511a1888a7" x="170.431579" y="100.8" style="fill: #ffffff"/>
    </g>
    <g clip-path="url(#pd4fd328d15)">
     <use xlink:href="#C0_0_511a1888a7" x="170.431579" y="109.136842" style="fill: #ffffff"/>
    </g>
    <g clip-path="url(#pd4fd328d15)">
     <use xlink:href="#C0_0_511a1888a7" x="170.431579" y="117.473684" style="fill: #ffffff"/>
    </g>
    <g clip-path="url(#pd4fd328d15)">
     <use xlink:href="#C0_0_511a1888a7" x="170.431579" y="125.810526" style="fill: #ffffff"/>
    </g>
    <g clip-path="url(#pd4fd328d15)">
     <use xlink:href="#C0_0_511a1888a7" x="170.431579" y="134.147368" style="fill: #ffffff"/>
    </g>
    <g clip-path="url(#pd4fd328d15)">
     <use xlink:href="#C0_0_511a1888a7" x="170.431579" y="142.484211" style="fill: #ffffff"/>
    </g>
    <g clip-path="url(#pd4fd328d15)">
     <use xlink:href="#C0_0_511a1888a7" x="170.431579" y="150.821053" style="fill: #ffffff"/>
    </g>
    <g clip-path="url(#pd4fd328d15)">
     <use xlink:href="#C0_0_511a1888a7" x="180.852632" y="165.552632" style="fill: #ffffff"/>
    </g>
    <g clip-path="url(#pd4fd328d15)">
     <use xlink:href="#C0_0_511a1888a7" x="172.515789" y="165.552632" style="fill: #ffffff"/>
    </g>
    <g clip-path="url(#pd4fd328d15)">
     <use xlink:href="#C0_0_511a1888a7" x="164.178947" y="165.552632" style="fill: #ffffff"/>
    </g>
    <g clip-path="url(#pd4fd328d15)">
     <use xlink:href="#C0_0_511a1888a7" x="155.842105" y="165.552632" style="fill: #ffffff"/>
    </g>
    <g clip-path="url(#pd4fd328d15)">
     <use xlink:href="#C0_0_511a1888a7" x="147.505263" y="165.552632" style="fill: #ffffff"/>
    </g>
    <g clip-path="url(#pd4fd328d15)">
     <use xlink:href="#C0_0_511a1888a7" x="139.215789" y="165.552632" style="fill: #ffffff"/>
    </g>
    <g clip-path="url(#pd4fd328d15)">
     <use xlink:href="#C0_0_511a1888a7" x="130.878947" y="165.552632" style="fill: #ffffff"/>
    </g>
    <g clip-path="url(#pd4fd328d15)">
     <use xlink:href="#C0_0_511a1888a7" x="122.542105" y="165.552632" style="fill: #ffffff"/>
    </g>
    <g clip-path="url(#pd4fd328d15)">
     <use xlink:href="#C0_0_511a1888a7" x="114.252632" y="165.552632" style="fill: #ffffff"/>
    </g>
    <g clip-path="url(#pd4fd328d15)">
     <use xlink:href="#C0_0_511a1888a7" x="105.915789" y="165.552632" style="fill: #ffffff"/>
    </g>
    <g clip-path="url(#pd4fd328d15)">
     <use xlink:href="#C0_0_511a1888a7" x="97.578947" y="165.552632" style="fill: #ffffff"/>
    </g>
    <g clip-path="url(#pd4fd328d15)">
     <use xlink:href="#C0_0_511a1888a7" x="89.242105" y="165.552632" style="fill: #ffffff"/>
    </g>
    <g clip-path="url(#pd4fd328d15)">
     <use xlink:href="#C0_0_511a1888a7" x="80.905263" y="165.552632" style="fill: #ffffff"/>
    </g>
    <g clip-path="url(#pd4fd328d15)">
     <use xlink:href="#C0_0_511a1888a7" x="72.189474" y="162.757895" style="fill: #ffffff"/>
    </g>
    <g clip-path="url(#pd4fd328d15)">
     <use xlink:href="#C0_0_511a1888a7" x="64.8" y="168.157895" style="fill: #ffffff"/>
    </g>
    <g clip-path="url(#pd4fd328d15)">
     <use xlink:href="#C0_0_511a1888a7" x="64.8" y="177.347368" style="fill: #ffffff"/>
    </g>
    <g clip-path="url(#pd4fd328d15)">
     <use xlink:href="#C0_0_511a1888a7" x="72.189474" y="182.747368" style="fill: #ffffff"/>
    </g>
    <g clip-path="url(#pd4fd328d15)">
     <use xlink:href="#C0_0_511a1888a7" x="80.905263" y="179.952632" style="fill: #ffffff"/>
    </g>
    <g clip-path="url(#pd4fd328d15)">
     <use xlink:href="#C0_0_511a1888a7" x="89.242105" y="179.952632" style="fill: #ffffff"/>
    </g>
    <g clip-path="url(#pd4fd328d15)">
     <use xlink:href="#C0_0_511a1888a7" x="97.578947" y="179.952632" style="fill: #ffffff"/>
    </g>
    <g clip-path="url(#pd4fd328d15)">
     <use xlink:href="#C0_0_511a1888a7" x="105.915789" y="179.952632" style="fill: #ffffff"/>
    </g>
    <g clip-path="url(#pd4fd328d15)">
     <use xlink:href="#C0_0_511a1888a7" x="110.984211" y="187.863158" style="fill: #ffffff"/>
    </g>
    <g clip-path="url(#pd4fd328d15)">
     <use xlink:href="#C0_0_511a1888a7" x="117.757895" y="193.973684" style="fill: #ffffff"/>
    </g>
    <g clip-path="url(#pd4fd328d15)">
     <use xlink:href="#C0_0_511a1888a7" x="126.284211" y="197.289474" style="fill: #ffffff"/>
    </g>
    <g clip-path="url(#pd4fd328d15)">
     <use xlink:href="#C0_0_511a1888a7" x="135.426316" y="197.289474" style="fill: #ffffff"/>
    </g>
    <g clip-path="url(#pd4fd328d15)">
     <use xlink:href="#C0_0_511a1888a7" x="144" y="193.973684" style="fill: #ffffff"/>
    </g>
    <g clip-path="url(#pd4fd328d15)">
     <use xlink:href="#C0_0_511a1888a7" x="150.726316" y="187.863158" style="fill: #ffffff"/>
    </g>
    <g clip-path="url(#pd4fd328d15)">
     <use xlink:href="#C0_0_511a1888a7" x="155.842105" y="179.952632" style="fill: #ffffff"/>
    </g>
    <g clip-path="url(#pd4fd328d15)">
     <use xlink:href="#C0_0_511a1888a7" x="164.178947" y="179.952632" style="fill: #ffffff"/>
    </g>
    <g clip-path="url(#pd4fd328d15)">
     <use xlink:href="#C0_0_511a1888a7" x="172.515789" y="179.952632" style="fill: #ffffff"/>
    </g>
    <g clip-path="url(#pd4fd328d15)">
     <use xlink:href="#C0_0_511a1888a7" x="180.852632" y="179.952632" style="fill: #ffffff"/>
    </g>
   </g>
   <g id="PathCollection_2">
    <defs>
     <path id="C1_0_747fd6ab2b" d="M 0.986573 1.030882 
L 0.986573 0.25439 
L 0.347655 0.25439 
L 0.347655 -0.067238 
L 1.37389 -0.067238 
L 1.37389 1.174654 
Q 1.147697 1.335158 0.874406 1.417579 
Q 0.601735 1.5 0.291882 1.5 
Q -0.386077 1.5 -0.769056 1.104007 
Q -1.151415 0.707395 -1.151415 0.00093 
Q -1.151415 -0.708015 -0.769056 -1.104007 
Q -0.386077 -1.5 0.291882 -1.5 
Q 0.574468 -1.5 0.829168 -1.429973 
Q 1.083867 -1.360566 1.298905 -1.22485 
L 1.298905 -0.808407 
Q 1.082008 -0.99246 0.837843 -1.085416 
Q 0.593679 -1.178372 0.324726 -1.178372 
Q -0.206362 -1.178372 -0.472836 -0.882152 
Q -0.73869 -0.585933 -0.73869 0.00093 
Q -0.73869 0.585933 -0.472836 0.882152 
Q -0.206362 1.178372 0.324726 1.178372 
Q 0.531708 1.178372 0.694071 1.142429 
Q 0.857054 1.106486 0.986573 1.030882 
z
"/>
    </defs>
    <g clip-path="url(#pd4fd328d15)">
     <use xlink:href="#C1_0_747fd6ab2b" x="122.494737" y="150.773684" style="stroke: #000000; stroke-width: 0.3"/>
    </g>
    <g clip-path="url(#pd4fd328d15)">
     <use xlink:href="#C1_0_747fd6ab2b" x="130.878947" y="150.773684" style="fill: #ffffff; stroke: #ffffff; stroke-width: 0.3"/>
    </g>
    <g clip-path="url(#pd4fd328d15)">
     <use xlink:href="#C1_0_747fd6ab2b" x="147.647368" y="150.773684" style="stroke: #000000; stroke-width: 0.3"/>
    </g>
    <g clip-path="url(#pd4fd328d15)">
     <use xlink:href="#C1_0_747fd6ab2b" x="156.031579" y="125.810526" style="stroke: #000000; stroke-width: 0.3"/>
    </g>
    <g clip-path="url(#pd4fd328d15)">
     <use xlink:href="#C1_0_747fd6ab2b" x="170.431579" y="100.8" style="stroke: #000000; stroke-width: 0.3"/>
    </g>
    <g clip-path="url(#pd4fd328d15)">
     <use xlink:href="#C1_0_747fd6ab2b" x="170.431579" y="109.136842" style="stroke: #000000; stroke-width: 0.3"/>
    </g>
    <g clip-path="url(#pd4fd328d15)">
     <use xlink:href="#C1_0_747fd6ab2b" x="170.431579" y="117.473684" style="stroke: #000000; stroke-width: 0.3"/>
    </g>
    <g clip-path="url(#pd4fd328d15)">
     <use xlink:href="#C1_0_747fd6ab2b" x="170.431579" y="134.147368" style="stroke: #000000; stroke-width: 0.3"/>
    </g>
    <g clip-path="url(#pd4fd328d15)">
     <use xlink:href="#C1_0_747fd6ab2b" x="170.431579" y="150.821053" style="stroke: #000000; stroke-width: 0.3"/>
    </g>
    <g clip-path="url(#pd4fd328d15)">
     <use xlink:href="#C1_0_747fd6ab2b" x="180.852632" y="165.552632" style="stroke: #000000; stroke-width: 0.3"/>
    </g>
    <g clip-path="url(#pd4fd328d15)">
     <use xlink:href="#C1_0_747fd6ab2b" x="155.842105" y="165.552632" style="stroke: #000000; stroke-width: 0.3"/>
    </g>
    <g clip-path="url(#pd4fd328d15)">
     <use xlink:href="#C1_0_747fd6ab2b" x="139.215789" y="165.552632" style="stroke: #000000; stroke-width: 0.3"/>
    </g>
    <g clip-path="url(#pd4fd328d15)">
     <use xlink:href="#C1_0_747fd6ab2b" x="105.915789" y="165.552632" style="stroke: #000000; stroke-width: 0.3"/>
    </g>
    <g clip-path="url(#pd4fd328d15)">
     <use xlink:href="#C1_0_747fd6ab2b" x="72.189474" y="182.747368" style="stroke: #000000; stroke-width: 0.3"/>
    </g>
    <g clip-path="url(#pd4fd328d15)">
     <use xlink:href="#C1_0_747fd6ab2b" x="80.905263" y="179.952632" style="stroke: #000000; stroke-width: 0.3"/>
    </g>
    <g clip-path="url(#pd4fd328d15)">
     <use xlink:href="#C1_0_747fd6ab2b" x="97.578947" y="179.952632" style="stroke: #000000; stroke-width: 0.3"/>
    </g>
    <g clip-path="url(#pd4fd328d15)">
     <use xlink:href="#C1_0_747fd6ab2b" x="164.178947" y="179.952632" style="stroke: #000000; stroke-width: 0.3"/>
    </g>
    <g clip-path="url(#pd4fd328d15)">
     <use xlink:href="#C1_0_747fd6ab2b" x="172.515789" y="179.952632" style="stroke: #000000; stroke-width: 0.3"/>
    </g>
   </g>
   <g id="PathCollection_3">
    <defs>
     <path id="C2_0_9ded0dd9c3" d="M -0.95102 -1.5 
L -0.550557 -1.5 
L -0.550557 0.287892 
Q -0.550557 0.760879 -0.379651 0.968993 
Q -0.208114 1.176477 0.176582 1.176477 
Q 0.558756 1.176477 0.730292 0.968993 
Q 0.901829 0.760879 0.901829 0.287892 
L 0.901829 -1.5 
L 1.301661 -1.5 
L 1.301661 0.337082 
Q 1.301661 0.912235 1.016607 1.206117 
Q 0.732184 1.5 0.176582 1.5 
Q -0.381543 1.5 -0.666597 1.206117 
Q -0.95102 0.912235 -0.95102 0.337082 
L -0.95102 -1.5 
z
"/>
    </defs>
    <g clip-path="url(#pd4fd328d15)">
     <use xlink:href="#C2_0_9ded0dd9c3" x="156.031579" y="142.484211" style="stroke: #000000; stroke-width: 0.3"/>
    </g>
    <g clip-path="url(#pd4fd328d15)">
     <use xlink:href="#C2_0_9ded0dd9c3" x="147.505263" y="165.552632" style="stroke: #000000; stroke-width: 0.3"/>
    </g>
    <g clip-path="url(#pd4fd328d15)">
     <use xlink:href="#C2_0_9ded0dd9c3" x="89.242105" y="165.552632" style="stroke: #000000; stroke-width: 0.3"/>
    </g>
    <g clip-path="url(#pd4fd328d15)">
     <use xlink:href="#C2_0_9ded0dd9c3" x="72.189474" y="162.757895" style="stroke: #000000; stroke-width: 0.3"/>
    </g>
    <g clip-path="url(#pd4fd328d15)">
     <use xlink:href="#C2_0_9ded0dd9c3" x="64.8" y="168.157895" style="stroke: #000000; stroke-width: 0.3"/>
    </g>
    <g clip-path="url(#pd4fd328d15)">
     <use xlink:href="#C2_0_9ded0dd9c3" x="126.284211" y="197.289474" style="stroke: #000000; stroke-width: 0.3"/>
    </g>
    <g clip-path="url(#pd4fd328d15)">
     <use xlink:href="#C2_0_9ded0dd9c3" x="150.726316" y="187.863158" style="stroke: #000000; stroke-width: 0.3"/>
    </g>
   </g>
   <g id="PathCollection_4"/>
   <g id="PathCollection_5">
    <defs>
     <path id="C3_0_8876ee977f" d="M 0.016395 -1.100086 
L -0.534612 0.392842 
L 0.568688 0.392842 
L 0.016395 -1.100086 
z
M -0.213138 -1.5 
L 0.247214 -1.5 
L 1.390377 1.5 
L 0.968603 1.5 
L 0.695349 0.73039 
L -0.656772 0.73039 
L -0.930026 1.5 
L -1.35823 1.5 
L -0.213138 -1.5 
z
"/>
    </defs>
    <g clip-path="url(#pd4fd328d15)">
     <use xlink:href="#C3_0_8876ee977f" x="139.263158" y="150.773684" style="fill: #ffffff; stroke: #ffffff; stroke-width: 0.3"/>
    </g>
    <g clip-path="url(#pd4fd328d15)">
     <use xlink:href="#C3_0_8876ee977f" x="170.431579" y="142.484211" style="stroke: #000000; stroke-width: 0.3"/>
    </g>
    <g clip-path="url(#pd4fd328d15)">
     <use xlink:href="#C3_0_8876ee977f" x="114.252632" y="165.552632" style="stroke: #000000; stroke-width: 0.3"/>
    </g>
    <g clip-path="url(#pd4fd328d15)">
     <use xlink:href="#C3_0_8876ee977f" x="89.242105" y="179.952632" style="stroke: #000000; stroke-width: 0.3"/>
    </g>
    <g clip-path="url(#pd4fd328d15)">
     <use xlink:href="#C3_0_8876ee977f" x="110.984211" y="187.863158" style="stroke: #000000; stroke-width: 0.3"/>
    </g>
    <g clip-path="url(#pd4fd328d15)">
     <use xlink:href="#C3_0_8876ee977f" x="117.757895" y="193.973684" style="stroke: #000000; stroke-width: 0.3"/>
    </g>
    <g clip-path="url(#pd4fd328d15)">
     <use xlink:href="#C3_0_8876ee977f" x="135.426316" y="197.289474" style="stroke: #000000; stroke-width: 0.3"/>
    </g>
   </g>
   <g id="PathCollection_6">
    <defs>
     <path id="C4_0_71c2a9152e" d="M 1.277215 -1.22485 
L 1.277215 -0.812745 
Q 1.079529 -0.996798 0.855815 -1.087275 
Q 0.632101 -1.178372 0.3805 -1.178372 
Q -0.115265 -1.178372 -0.378641 -0.875336 
Q -0.642016 -0.572299 -0.642016 0.00093 
Q -0.642016 0.572299 -0.378641 0.875336 
Q -0.115265 1.178372 0.3805 1.178372 
Q 0.632101 1.178372 0.855815 1.087275 
Q 1.079529 0.996178 1.277215 0.812126 
L 1.277215 1.221132 
Q 1.072093 1.360566 0.842181 1.430593 
Q 0.61289 1.5 0.357571 1.5 
Q -0.299318 1.5 -0.677339 1.09843 
Q -1.054741 0.69624 -1.054741 0.00093 
Q -1.054741 -0.69624 -0.677339 -1.09781 
Q -0.299318 -1.5 0.357571 -1.5 
Q 0.616608 -1.5 0.8459 -1.431213 
Q 1.075811 -1.362425 1.277215 -1.22485 
z
"/>
    </defs>
    <g clip-path="url(#pd4fd328d15)">
     <use xlink:href="#C4_0_71c2a9152e" x="156.031579" y="150.821053" style="stroke: #000000; stroke-width: 0.3"/>
    </g>
    <g clip-path="url(#pd4fd328d15)">
     <use xlink:href="#C4_0_71c2a9152e" x="156.031579" y="134.147368" style="stroke: #000000; stroke-width: 0.3"/>
    </g>
    <g clip-path="url(#pd4fd328d15)">
     <use xlink:href="#C4_0_71c2a9152e" x="156.031579" y="117.473684" style="stroke: #000000; stroke-width: 0.3"/>
    </g>
    <g clip-path="url(#pd4fd328d15)">
     <use xlink:href="#C4_0_71c2a9152e" x="156.031579" y="109.136842" style="stroke: #000000; stroke-width: 0.3"/>
    </g>
    <g clip-path="url(#pd4fd328d15)">
     <use xlink:href="#C4_0_71c2a9152e" x="156.031579" y="100.8" style="stroke: #000000; stroke-width: 0.3"/>
    </g>
    <g clip-path="url(#pd4fd328d15)">
     <use xlink:href="#C4_0_71c2a9152e" x="170.431579" y="125.810526" style="stroke: #000000; stroke-width: 0.3"/>
    </g>
    <g clip-path="url(#pd4fd328d15)">
     <use xlink:href="#C4_0_71c2a9152e" x="172.515789" y="165.552632" style="stroke: #000000; stroke-width: 0.3"/>
    </g>
    <g clip-path="url(#pd4fd328d15)">
     <use xlink:href="#C4_0_71c2a9152e" x="164.178947" y="165.552632" style="stroke: #000000; stroke-width: 0.3"/>
    </g>
    <g clip-path="url(#pd4fd328d15)">
     <use xlink:href="#C4_0_71c2a9152e" x="130.878947" y="165.552632" style="stroke: #000000; stroke-width: 0.3"/>
    </g>
    <g clip-path="url(#pd4fd328d15)">
     <use xlink:href="#C4_0_71c2a9152e" x="122.542105" y="165.552632" style="stroke: #000000; stroke-width: 0.3"/>
    </g>
    <g clip-path="url(#pd4fd328d15)">
     <use xlink:href="#C4_0_71c2a9152e" x="97.578947" y="165.552632" style="stroke: #000000; stroke-width: 0.3"/>
    </g>
    <g clip-path="url(#pd4fd328d15)">
     <use xlink:href="#C4_0_71c2a9152e" x="80.905263" y="165.552632" style="stroke: #000000; stroke-width: 0.3"/>
    </g>
    <g clip-path="url(#pd4fd328d15)">
     <use xlink:href="#C4_0_71c2a9152e" x="64.8" y="177.347368" style="stroke: #000000; stroke-width: 0.3"/>
    </g>
    <g clip-path="url(#pd4fd328d15)">
     <use xlink:href="#C4_0_71c2a9152e" x="105.915789" y="179.952632" style="stroke: #000000; stroke-width: 0.3"/>
    </g>
    <g clip-path="url(#pd4fd328d15)">
     <use xlink:href="#C4_0_71c2a9152e" x="144" y="193.973684" style="stroke: #000000; stroke-width: 0.3"/>
    </g>
    <g clip-path="url(#pd4fd328d15)">
     <use xlink:href="#C4_0_71c2a9152e" x="155.842105" y="179.952632" style="stroke: #000000; stroke-width: 0.3"/>
    </g>
    <g clip-path="url(#pd4fd328d15)">
     <use xlink:href="#C4_0_71c2a9152e" x="180.852632" y="179.952632" style="stroke: #000000; stroke-width: 0.3"/>
    </g>
   </g>
   <g id="PathCollection_7"/>
   <g id="PathCollection_8"/>
   <g id="PathCollection_9"/>
   <g id="PathCollection_10"/>
   <g id="PathCollection_11"/>
  </g>
 </g>
 <defs>
  <clipPath id="pd4fd328d15">
   <rect x="36" y="72" width="173.652632" height="154.089474"/>
  </clipPath>
 </defs>
</svg>
