<?xml version="1.0" encoding="utf-8" standalone="no"?>
<!DOCTYPE svg PUBLIC "-//W3C//DTD SVG 1.1//EN"
  "http://www.w3.org/Graphics/SVG/1.1/DTD/svg11.dtd">
<svg xmlns:xlink="http://www.w3.org/1999/xlink" width="502.259211pt" height="479.080658pt" viewBox="0 0 502.259211 479.080658" xmlns="http://www.w3.org/2000/svg" version="1.1">
 <metadata>
  <rdf:RDF xmlns:dc="http://purl.org/dc/elements/1.1/" xmlns:cc="http://creativecommons.org/ns#" xmlns:rdf="http://www.w3.org/1999/02/22-rdf-syntax-ns#">
   <cc:Work>
    <dc:type rdf:resource="http://purl.org/dc/dcmitype/StillImage"/>
    <dc:date>2023-10-17T14:08:04.876305</dc:date>
    <dc:format>image/svg+xml</dc:format>
    <dc:creator>
     <cc:Agent>
      <dc:title>Matplotlib v3.6.3, https://matplotlib.org/</dc:title>
     </cc:Agent>
    </dc:creator>
   </cc:Work>
  </rdf:RDF>
 </metadata>
 <defs>
  <style type="text/css">*{stroke-linejoin: round; stroke-linecap: butt}</style>
 </defs>
 <g id="figure_1">
  <g id="patch_1">
   <path d="M 0 479.080658 
L 502.259211 479.080658 
L 502.259211 0 
L 0 0 
z
" style="fill: #ffffff"/>
  </g>
  <g id="axes_1">
   <g id="line2d_1">
    <path d="M 250.271305 274.645073 
L 250.316364 288.418411 
" clip-path="url(#pa0d883ac5c)" style="fill: none; stroke: #808080; stroke-width: 3; stroke-linecap: round"/>
   </g>
   <g id="line2d_2">
    <path d="M 272.988222 274.645139 
L 272.988222 288.418345 
" clip-path="url(#pa0d883ac5c)" style="fill: none; stroke: #808080; stroke-width: 3; stroke-linecap: round"/>
   </g>
   <g id="line2d_3">
    <path d="M 299.594315 274.075915 
L 323.01587 348.321535 
" clip-path="url(#pa0d883ac5c)" style="fill: none; stroke: #808080; stroke-width: 3; stroke-linecap: round"/>
   </g>
   <g id="line2d_4">
    <path d="M 317.409404 274.599882 
L 309.701084 364.048272 
" clip-path="url(#pa0d883ac5c)" style="fill: none; stroke: #808080; stroke-width: 3; stroke-linecap: round"/>
   </g>
   <g id="line2d_5">
    <path d="M 354.293706 262.005702 
L 367.323156 262.005702 
" clip-path="url(#pa0d883ac5c)" style="fill: none; stroke: #808080; stroke-width: 3; stroke-linecap: round"/>
   </g>
   <g id="line2d_6">
    <path d="M 354.293706 239.834199 
L 367.323156 239.834199 
" clip-path="url(#pa0d883ac5c)" style="fill: none; stroke: #808080; stroke-width: 3; stroke-linecap: round"/>
   </g>
   <g id="line2d_7">
    <path d="M 354.293706 217.662695 
L 367.323156 217.662695 
" clip-path="url(#pa0d883ac5c)" style="fill: none; stroke: #808080; stroke-width: 3; stroke-linecap: round"/>
   </g>
   <g id="line2d_8">
    <path d="M 354.293706 195.491192 
L 367.323156 195.491192 
" clip-path="url(#pa0d883ac5c)" style="fill: none; stroke: #808080; stroke-width: 3; stroke-linecap: round"/>
   </g>
   <g id="line2d_9">
    <path d="M 354.293706 173.319688 
L 367.323156 173.319688 
" clip-path="url(#pa0d883ac5c)" style="fill: none; stroke: #808080; stroke-width: 3; stroke-linecap: round"/>
   </g>
   <g id="line2d_10">
    <path d="M 354.293706 151.148185 
L 367.323156 151.148185 
" clip-path="url(#pa0d883ac5c)" style="fill: none; stroke: #808080; stroke-width: 3; stroke-linecap: round"/>
   </g>
   <g id="line2d_11">
    <path d="M 354.293706 128.976682 
L 367.323156 128.976682 
" clip-path="url(#pa0d883ac5c)" style="fill: none; stroke: #808080; stroke-width: 3; stroke-linecap: round"/>
   </g>
   <g id="line2d_12">
    <path d="M 408.640228 313.949167 
L 408.640228 326.714578 
" clip-path="url(#pa0d883ac5c)" style="fill: none; stroke: #808080; stroke-width: 3; stroke-linecap: round"/>
   </g>
   <g id="line2d_13">
    <path d="M 386.01013 313.949167 
L 386.01013 326.714578 
" clip-path="url(#pa0d883ac5c)" style="fill: none; stroke: #808080; stroke-width: 3; stroke-linecap: round"/>
   </g>
   <g id="line2d_14">
    <path d="M 363.380033 313.949167 
L 363.380033 326.714578 
" clip-path="url(#pa0d883ac5c)" style="fill: none; stroke: #808080; stroke-width: 3; stroke-linecap: round"/>
   </g>
   <g id="line2d_15">
    <path d="M 340.749935 313.949167 
L 340.749935 326.714578 
" clip-path="url(#pa0d883ac5c)" style="fill: none; stroke: #808080; stroke-width: 3; stroke-linecap: round"/>
   </g>
   <g id="line2d_16">
    <path d="M 205.226509 313.949167 
L 205.226509 326.714578 
" clip-path="url(#pa0d883ac5c)" style="fill: none; stroke: #808080; stroke-width: 3; stroke-linecap: round"/>
   </g>
   <g id="line2d_17">
    <path d="M 182.596412 313.949167 
L 182.596412 326.714578 
" clip-path="url(#pa0d883ac5c)" style="fill: none; stroke: #808080; stroke-width: 3; stroke-linecap: round"/>
   </g>
   <g id="line2d_18">
    <path d="M 159.966314 313.949167 
L 159.966314 326.714578 
" clip-path="url(#pa0d883ac5c)" style="fill: none; stroke: #808080; stroke-width: 3; stroke-linecap: round"/>
   </g>
   <g id="line2d_19">
    <path d="M 137.336217 313.949167 
L 137.336217 326.714578 
" clip-path="url(#pa0d883ac5c)" style="fill: none; stroke: #808080; stroke-width: 3; stroke-linecap: round"/>
   </g>
   <g id="LineCollection_1">
    <path d="M 250.229545 261.879727 
L 261.608883 261.879727 
L 272.988222 261.879727 
L 284.367561 261.879727 
L 295.7469 261.879727 
L 307.126239 261.879727 
L 318.505578 261.879727 
L 329.884917 261.942715 
L 341.264256 262.005702 
L 341.264256 250.91995 
L 341.264256 239.834199 
L 341.264256 228.748447 
L 341.264256 217.662695 
L 341.264256 206.576943 
L 341.264256 195.491192 
L 341.264256 184.40544 
L 341.264256 173.319688 
L 341.264256 162.233937 
L 341.264256 151.148185 
L 341.264256 140.062433 
L 341.264256 128.976682 
L 360.808431 128.976682 
L 380.352606 128.976682 
L 380.352606 140.062433 
L 380.352606 151.148185 
L 380.352606 162.233937 
L 380.352606 173.319688 
L 380.352606 184.40544 
L 380.352606 195.491192 
L 380.352606 206.576943 
L 380.352606 217.662695 
L 380.352606 228.748447 
L 380.352606 239.834199 
L 380.352606 250.91995 
L 380.352606 262.005702 
L 394.496417 281.594729 
L 408.640228 301.183756 
L 397.325179 301.183756 
L 386.01013 301.183756 
L 374.695082 301.183756 
L 363.380033 301.183756 
L 352.064984 301.183756 
L 340.749935 301.183756 
L 329.434886 301.183756 
L 318.119837 301.183756 
L 306.869079 301.183756 
L 295.61832 301.183756 
L 284.303271 301.183756 
L 272.988222 301.183756 
L 261.673173 301.183756 
L 250.358125 301.183756 
L 239.107366 301.183756 
L 227.856607 301.183756 
L 216.541558 301.183756 
L 205.226509 301.183756 
L 193.911461 301.183756 
L 182.596412 301.183756 
L 171.281363 301.183756 
L 159.966314 301.183756 
L 148.651265 301.183756 
L 137.336217 301.183756 
L 125.506847 297.46751 
L 113.677478 293.751264 
L 103.64823 300.931807 
L 93.618982 308.112351 
L 93.618982 320.331873 
L 93.618982 332.551395 
L 103.64823 339.731938 
L 113.677478 346.912482 
L 125.506847 343.196236 
L 137.336217 339.479989 
L 148.651265 339.479989 
L 159.966314 339.479989 
L 171.281363 339.479989 
L 182.596412 339.479989 
L 193.911461 339.479989 
L 205.226509 339.479989 
L 212.105545 349.998856 
L 218.98458 360.517723 
L 228.178057 368.643075 
L 237.371535 376.768427 
L 248.943744 381.177533 
L 260.515953 385.586638 
L 272.923932 385.586638 
L 285.331912 385.586638 
L 296.968411 381.177533 
L 308.60491 376.768427 
L 317.734097 368.643075 
L 326.863284 360.517723 
L 333.80661 349.998856 
L 340.749935 339.479989 
L 352.064984 339.479989 
L 363.380033 339.479989 
L 374.695082 339.479989 
L 386.01013 339.479989 
L 397.325179 339.479989 
L 408.640228 339.479989 
" clip-path="url(#pa0d883ac5c)" style="fill: none; stroke: #808080; stroke-width: 3"/>
   </g>
   <g id="text_1">
    <text style="fill: #262626; font: 24px 'Arial', 'DejaVu Sans', 'Liberation Sans', 'Bitstream Vera Sans', sans-serif; text-anchor: middle" x="251.129605" y="71.849951" transform="rotate(-0 251.129605 71.849951)">1YKV</text>
   </g>
   <g id="PathCollection_1">
    <defs>
     <path id="C0_0_3481a4007d" d="M 0 8 
C 2.121625 8 4.156639 7.15707 5.656854 5.656854 
C 7.15707 4.156639 8 2.121625 8 -0 
C 8 -2.121625 7.15707 -4.156639 5.656854 -5.656854 
C 4.156639 -7.15707 2.121625 -8 0 -8 
C -2.121625 -8 -4.156639 -7.15707 -5.656854 -5.656854 
C -7.15707 -4.156639 -8 -2.121625 -8 0 
C -8 2.121625 -7.15707 4.156639 -5.656854 5.656854 
C -4.156639 7.15707 -2.121625 8 0 8 
z
"/>
    </defs>
    <g clip-path="url(#pa0d883ac5c)">
     <use xlink:href="#C0_0_3481a4007d" x="250.229545" y="261.879727" style="fill: #ffffff; stroke: #ffffff; stroke-width: 2"/>
    </g>
    <g clip-path="url(#pa0d883ac5c)">
     <use xlink:href="#C0_0_3481a4007d" x="272.988222" y="261.879727" style="fill: #f66c00; stroke: #f66c00; stroke-width: 2"/>
    </g>
    <g clip-path="url(#pa0d883ac5c)">
     <use xlink:href="#C0_0_3481a4007d" x="295.7469" y="261.879727" style="fill: #f66c00; stroke: #f66c00; stroke-width: 2"/>
    </g>
    <g clip-path="url(#pa0d883ac5c)">
     <use xlink:href="#C0_0_3481a4007d" x="318.505578" y="261.879727" style="fill: #ffffff; stroke: #ffffff; stroke-width: 2"/>
    </g>
    <g clip-path="url(#pa0d883ac5c)">
     <use xlink:href="#C0_0_3481a4007d" x="341.264256" y="262.005702" style="fill: #ffffff; stroke: #ffffff; stroke-width: 2"/>
    </g>
    <g clip-path="url(#pa0d883ac5c)">
     <use xlink:href="#C0_0_3481a4007d" x="341.264256" y="239.834199" style="fill: #ffffff; stroke: #ffffff; stroke-width: 2"/>
    </g>
    <g clip-path="url(#pa0d883ac5c)">
     <use xlink:href="#C0_0_3481a4007d" x="341.264256" y="217.662695" style="fill: #ffffff; stroke: #ffffff; stroke-width: 2"/>
    </g>
    <g clip-path="url(#pa0d883ac5c)">
     <use xlink:href="#C0_0_3481a4007d" x="341.264256" y="195.491192" style="fill: #ffffff; stroke: #ffffff; stroke-width: 2"/>
    </g>
    <g clip-path="url(#pa0d883ac5c)">
     <use xlink:href="#C0_0_3481a4007d" x="341.264256" y="173.319688" style="fill: #ffffff; stroke: #ffffff; stroke-width: 2"/>
    </g>
    <g clip-path="url(#pa0d883ac5c)">
     <use xlink:href="#C0_0_3481a4007d" x="341.264256" y="151.148185" style="fill: #ffffff; stroke: #ffffff; stroke-width: 2"/>
    </g>
    <g clip-path="url(#pa0d883ac5c)">
     <use xlink:href="#C0_0_3481a4007d" x="341.264256" y="128.976682" style="fill: #ffffff; stroke: #ffffff; stroke-width: 2"/>
    </g>
    <g clip-path="url(#pa0d883ac5c)">
     <use xlink:href="#C0_0_3481a4007d" x="380.352606" y="128.976682" style="fill: #ffffff; stroke: #ffffff; stroke-width: 2"/>
    </g>
    <g clip-path="url(#pa0d883ac5c)">
     <use xlink:href="#C0_0_3481a4007d" x="380.352606" y="151.148185" style="fill: #ffffff; stroke: #ffffff; stroke-width: 2"/>
    </g>
    <g clip-path="url(#pa0d883ac5c)">
     <use xlink:href="#C0_0_3481a4007d" x="380.352606" y="173.319688" style="fill: #ffffff; stroke: #ffffff; stroke-width: 2"/>
    </g>
    <g clip-path="url(#pa0d883ac5c)">
     <use xlink:href="#C0_0_3481a4007d" x="380.352606" y="195.491192" style="fill: #ffffff; stroke: #ffffff; stroke-width: 2"/>
    </g>
    <g clip-path="url(#pa0d883ac5c)">
     <use xlink:href="#C0_0_3481a4007d" x="380.352606" y="217.662695" style="fill: #ffffff; stroke: #ffffff; stroke-width: 2"/>
    </g>
    <g clip-path="url(#pa0d883ac5c)">
     <use xlink:href="#C0_0_3481a4007d" x="380.352606" y="239.834199" style="fill: #ffffff; stroke: #ffffff; stroke-width: 2"/>
    </g>
    <g clip-path="url(#pa0d883ac5c)">
     <use xlink:href="#C0_0_3481a4007d" x="380.352606" y="262.005702" style="fill: #ffffff; stroke: #ffffff; stroke-width: 2"/>
    </g>
    <g clip-path="url(#pa0d883ac5c)">
     <use xlink:href="#C0_0_3481a4007d" x="408.640228" y="301.183756" style="fill: #ffffff; stroke: #ffffff; stroke-width: 2"/>
    </g>
    <g clip-path="url(#pa0d883ac5c)">
     <use xlink:href="#C0_0_3481a4007d" x="386.01013" y="301.183756" style="fill: #ffffff; stroke: #ffffff; stroke-width: 2"/>
    </g>
    <g clip-path="url(#pa0d883ac5c)">
     <use xlink:href="#C0_0_3481a4007d" x="363.380033" y="301.183756" style="fill: #ffffff; stroke: #ffffff; stroke-width: 2"/>
    </g>
    <g clip-path="url(#pa0d883ac5c)">
     <use xlink:href="#C0_0_3481a4007d" x="340.749935" y="301.183756" style="fill: #ffffff; stroke: #ffffff; stroke-width: 2"/>
    </g>
    <g clip-path="url(#pa0d883ac5c)">
     <use xlink:href="#C0_0_3481a4007d" x="318.119837" y="301.183756" style="fill: #ffffff; stroke: #ffffff; stroke-width: 2"/>
    </g>
    <g clip-path="url(#pa0d883ac5c)">
     <use xlink:href="#C0_0_3481a4007d" x="295.61832" y="301.183756" style="fill: #ffffff; stroke: #ffffff; stroke-width: 2"/>
    </g>
    <g clip-path="url(#pa0d883ac5c)">
     <use xlink:href="#C0_0_3481a4007d" x="272.988222" y="301.183756" style="fill: #ffffff; stroke: #ffffff; stroke-width: 2"/>
    </g>
    <g clip-path="url(#pa0d883ac5c)">
     <use xlink:href="#C0_0_3481a4007d" x="250.358125" y="301.183756" style="fill: #ffffff; stroke: #ffffff; stroke-width: 2"/>
    </g>
    <g clip-path="url(#pa0d883ac5c)">
     <use xlink:href="#C0_0_3481a4007d" x="227.856607" y="301.183756" style="fill: #ffffff; stroke: #ffffff; stroke-width: 2"/>
    </g>
    <g clip-path="url(#pa0d883ac5c)">
     <use xlink:href="#C0_0_3481a4007d" x="205.226509" y="301.183756" style="fill: #ffffff; stroke: #ffffff; stroke-width: 2"/>
    </g>
    <g clip-path="url(#pa0d883ac5c)">
     <use xlink:href="#C0_0_3481a4007d" x="182.596412" y="301.183756" style="fill: #ffffff; stroke: #ffffff; stroke-width: 2"/>
    </g>
    <g clip-path="url(#pa0d883ac5c)">
     <use xlink:href="#C0_0_3481a4007d" x="159.966314" y="301.183756" style="fill: #ffffff; stroke: #ffffff; stroke-width: 2"/>
    </g>
    <g clip-path="url(#pa0d883ac5c)">
     <use xlink:href="#C0_0_3481a4007d" x="137.336217" y="301.183756" style="fill: #ffffff; stroke: #ffffff; stroke-width: 2"/>
    </g>
    <g clip-path="url(#pa0d883ac5c)">
     <use xlink:href="#C0_0_3481a4007d" x="113.677478" y="293.751264" style="fill: #ffffff; stroke: #ffffff; stroke-width: 2"/>
    </g>
    <g clip-path="url(#pa0d883ac5c)">
     <use xlink:href="#C0_0_3481a4007d" x="93.618982" y="308.112351" style="fill: #ffffff; stroke: #ffffff; stroke-width: 2"/>
    </g>
    <g clip-path="url(#pa0d883ac5c)">
     <use xlink:href="#C0_0_3481a4007d" x="93.618982" y="332.551395" style="fill: #ffffff; stroke: #ffffff; stroke-width: 2"/>
    </g>
    <g clip-path="url(#pa0d883ac5c)">
     <use xlink:href="#C0_0_3481a4007d" x="113.677478" y="346.912482" style="fill: #ffffff; stroke: #ffffff; stroke-width: 2"/>
    </g>
    <g clip-path="url(#pa0d883ac5c)">
     <use xlink:href="#C0_0_3481a4007d" x="137.336217" y="339.479989" style="fill: #ffffff; stroke: #ffffff; stroke-width: 2"/>
    </g>
    <g clip-path="url(#pa0d883ac5c)">
     <use xlink:href="#C0_0_3481a4007d" x="159.966314" y="339.479989" style="fill: #ffffff; stroke: #ffffff; stroke-width: 2"/>
    </g>
    <g clip-path="url(#pa0d883ac5c)">
     <use xlink:href="#C0_0_3481a4007d" x="182.596412" y="339.479989" style="fill: #ffffff; stroke: #ffffff; stroke-width: 2"/>
    </g>
    <g clip-path="url(#pa0d883ac5c)">
     <use xlink:href="#C0_0_3481a4007d" x="205.226509" y="339.479989" style="fill: #ffffff; stroke: #ffffff; stroke-width: 2"/>
    </g>
    <g clip-path="url(#pa0d883ac5c)">
     <use xlink:href="#C0_0_3481a4007d" x="218.98458" y="360.517723" style="fill: #ffffff; stroke: #ffffff; stroke-width: 2"/>
    </g>
    <g clip-path="url(#pa0d883ac5c)">
     <use xlink:href="#C0_0_3481a4007d" x="237.371535" y="376.768427" style="fill: #ffffff; stroke: #ffffff; stroke-width: 2"/>
    </g>
    <g clip-path="url(#pa0d883ac5c)">
     <use xlink:href="#C0_0_3481a4007d" x="260.515953" y="385.586638" style="fill: #ffffff; stroke: #ffffff; stroke-width: 2"/>
    </g>
    <g clip-path="url(#pa0d883ac5c)">
     <use xlink:href="#C0_0_3481a4007d" x="285.331912" y="385.586638" style="fill: #ffffff; stroke: #ffffff; stroke-width: 2"/>
    </g>
    <g clip-path="url(#pa0d883ac5c)">
     <use xlink:href="#C0_0_3481a4007d" x="308.60491" y="376.768427" style="fill: #ffffff; stroke: #ffffff; stroke-width: 2"/>
    </g>
    <g clip-path="url(#pa0d883ac5c)">
     <use xlink:href="#C0_0_3481a4007d" x="326.863284" y="360.517723" style="fill: #ffffff; stroke: #ffffff; stroke-width: 2"/>
    </g>
    <g clip-path="url(#pa0d883ac5c)">
     <use xlink:href="#C0_0_3481a4007d" x="340.749935" y="339.479989" style="fill: #ffffff; stroke: #ffffff; stroke-width: 2"/>
    </g>
    <g clip-path="url(#pa0d883ac5c)">
     <use xlink:href="#C0_0_3481a4007d" x="363.380033" y="339.479989" style="fill: #ffffff; stroke: #ffffff; stroke-width: 2"/>
    </g>
    <g clip-path="url(#pa0d883ac5c)">
     <use xlink:href="#C0_0_3481a4007d" x="386.01013" y="339.479989" style="fill: #ffffff; stroke: #ffffff; stroke-width: 2"/>
    </g>
    <g clip-path="url(#pa0d883ac5c)">
     <use xlink:href="#C0_0_3481a4007d" x="408.640228" y="339.479989" style="fill: #ffffff; stroke: #ffffff; stroke-width: 2"/>
    </g>
   </g>
   <g id="PathCollection_2">
    <defs>
     <path id="C1_0_14159db09d" d="M 0 10 
C 2.652031 10 5.195799 8.946337 7.071068 7.071068 
C 8.946337 5.195799 10 2.652031 10 -0 
C 10 -2.652031 8.946337 -5.195799 7.071068 -7.071068 
C 5.195799 -8.946337 2.652031 -10 0 -10 
C -2.652031 -10 -5.195799 -8.946337 -7.071068 -7.071068 
C -8.946337 -5.195799 -10 -2.652031 -10 0 
C -10 2.652031 -8.946337 5.195799 -7.071068 7.071068 
C -5.195799 8.946337 -2.652031 10 0 10 
z
"/>
    </defs>
    <g clip-path="url(#pa0d883ac5c)">
     <use xlink:href="#C1_0_14159db09d" x="250.229545" y="261.879727" style="fill: #ffffff; stroke: #ffffff; stroke-width: 2"/>
    </g>
    <g clip-path="url(#pa0d883ac5c)">
     <use xlink:href="#C1_0_14159db09d" x="272.988222" y="261.879727" style="fill: #f66c00; stroke: #f66c00; stroke-width: 2"/>
    </g>
    <g clip-path="url(#pa0d883ac5c)">
     <use xlink:href="#C1_0_14159db09d" x="295.7469" y="261.879727" style="fill: #f66c00; stroke: #f66c00; stroke-width: 2"/>
    </g>
    <g clip-path="url(#pa0d883ac5c)">
     <use xlink:href="#C1_0_14159db09d" x="318.505578" y="261.879727" style="fill: #ffffff; stroke: #ffffff; stroke-width: 2"/>
    </g>
    <g clip-path="url(#pa0d883ac5c)">
     <use xlink:href="#C1_0_14159db09d" x="341.264256" y="262.005702" style="fill: #ffffff; stroke: #ffffff; stroke-width: 2"/>
    </g>
    <g clip-path="url(#pa0d883ac5c)">
     <use xlink:href="#C1_0_14159db09d" x="341.264256" y="239.834199" style="fill: #ffffff; stroke: #ffffff; stroke-width: 2"/>
    </g>
    <g clip-path="url(#pa0d883ac5c)">
     <use xlink:href="#C1_0_14159db09d" x="341.264256" y="217.662695" style="fill: #ffffff; stroke: #ffffff; stroke-width: 2"/>
    </g>
    <g clip-path="url(#pa0d883ac5c)">
     <use xlink:href="#C1_0_14159db09d" x="341.264256" y="195.491192" style="fill: #ffffff; stroke: #ffffff; stroke-width: 2"/>
    </g>
    <g clip-path="url(#pa0d883ac5c)">
     <use xlink:href="#C1_0_14159db09d" x="341.264256" y="173.319688" style="fill: #ffffff; stroke: #ffffff; stroke-width: 2"/>
    </g>
    <g clip-path="url(#pa0d883ac5c)">
     <use xlink:href="#C1_0_14159db09d" x="341.264256" y="151.148185" style="fill: #ffffff; stroke: #ffffff; stroke-width: 2"/>
    </g>
    <g clip-path="url(#pa0d883ac5c)">
     <use xlink:href="#C1_0_14159db09d" x="341.264256" y="128.976682" style="fill: #ffffff; stroke: #ffffff; stroke-width: 2"/>
    </g>
    <g clip-path="url(#pa0d883ac5c)">
     <use xlink:href="#C1_0_14159db09d" x="380.352606" y="128.976682" style="fill: #ffffff; stroke: #ffffff; stroke-width: 2"/>
    </g>
    <g clip-path="url(#pa0d883ac5c)">
     <use xlink:href="#C1_0_14159db09d" x="380.352606" y="151.148185" style="fill: #ffffff; stroke: #ffffff; stroke-width: 2"/>
    </g>
    <g clip-path="url(#pa0d883ac5c)">
     <use xlink:href="#C1_0_14159db09d" x="380.352606" y="173.319688" style="fill: #ffffff; stroke: #ffffff; stroke-width: 2"/>
    </g>
    <g clip-path="url(#pa0d883ac5c)">
     <use xlink:href="#C1_0_14159db09d" x="380.352606" y="195.491192" style="fill: #ffffff; stroke: #ffffff; stroke-width: 2"/>
    </g>
    <g clip-path="url(#pa0d883ac5c)">
     <use xlink:href="#C1_0_14159db09d" x="380.352606" y="217.662695" style="fill: #ffffff; stroke: #ffffff; stroke-width: 2"/>
    </g>
    <g clip-path="url(#pa0d883ac5c)">
     <use xlink:href="#C1_0_14159db09d" x="380.352606" y="239.834199" style="fill: #ffffff; stroke: #ffffff; stroke-width: 2"/>
    </g>
    <g clip-path="url(#pa0d883ac5c)">
     <use xlink:href="#C1_0_14159db09d" x="380.352606" y="262.005702" style="fill: #ffffff; stroke: #ffffff; stroke-width: 2"/>
    </g>
    <g clip-path="url(#pa0d883ac5c)">
     <use xlink:href="#C1_0_14159db09d" x="408.640228" y="301.183756" style="fill: #ffffff; stroke: #ffffff; stroke-width: 2"/>
    </g>
    <g clip-path="url(#pa0d883ac5c)">
     <use xlink:href="#C1_0_14159db09d" x="386.01013" y="301.183756" style="fill: #ffffff; stroke: #ffffff; stroke-width: 2"/>
    </g>
    <g clip-path="url(#pa0d883ac5c)">
     <use xlink:href="#C1_0_14159db09d" x="363.380033" y="301.183756" style="fill: #ffffff; stroke: #ffffff; stroke-width: 2"/>
    </g>
    <g clip-path="url(#pa0d883ac5c)">
     <use xlink:href="#C1_0_14159db09d" x="340.749935" y="301.183756" style="fill: #ffffff; stroke: #ffffff; stroke-width: 2"/>
    </g>
    <g clip-path="url(#pa0d883ac5c)">
     <use xlink:href="#C1_0_14159db09d" x="318.119837" y="301.183756" style="fill: #ffffff; stroke: #ffffff; stroke-width: 2"/>
    </g>
    <g clip-path="url(#pa0d883ac5c)">
     <use xlink:href="#C1_0_14159db09d" x="295.61832" y="301.183756" style="fill: #ffffff; stroke: #ffffff; stroke-width: 2"/>
    </g>
    <g clip-path="url(#pa0d883ac5c)">
     <use xlink:href="#C1_0_14159db09d" x="272.988222" y="301.183756" style="fill: #ffffff; stroke: #ffffff; stroke-width: 2"/>
    </g>
    <g clip-path="url(#pa0d883ac5c)">
     <use xlink:href="#C1_0_14159db09d" x="250.358125" y="301.183756" style="fill: #ffffff; stroke: #ffffff; stroke-width: 2"/>
    </g>
    <g clip-path="url(#pa0d883ac5c)">
     <use xlink:href="#C1_0_14159db09d" x="227.856607" y="301.183756" style="fill: #ffffff; stroke: #ffffff; stroke-width: 2"/>
    </g>
    <g clip-path="url(#pa0d883ac5c)">
     <use xlink:href="#C1_0_14159db09d" x="205.226509" y="301.183756" style="fill: #ffffff; stroke: #ffffff; stroke-width: 2"/>
    </g>
    <g clip-path="url(#pa0d883ac5c)">
     <use xlink:href="#C1_0_14159db09d" x="182.596412" y="301.183756" style="fill: #ffffff; stroke: #ffffff; stroke-width: 2"/>
    </g>
    <g clip-path="url(#pa0d883ac5c)">
     <use xlink:href="#C1_0_14159db09d" x="159.966314" y="301.183756" style="fill: #ffffff; stroke: #ffffff; stroke-width: 2"/>
    </g>
    <g clip-path="url(#pa0d883ac5c)">
     <use xlink:href="#C1_0_14159db09d" x="137.336217" y="301.183756" style="fill: #ffffff; stroke: #ffffff; stroke-width: 2"/>
    </g>
    <g clip-path="url(#pa0d883ac5c)">
     <use xlink:href="#C1_0_14159db09d" x="113.677478" y="293.751264" style="fill: #ffffff; stroke: #ffffff; stroke-width: 2"/>
    </g>
    <g clip-path="url(#pa0d883ac5c)">
     <use xlink:href="#C1_0_14159db09d" x="93.618982" y="308.112351" style="fill: #ffffff; stroke: #ffffff; stroke-width: 2"/>
    </g>
    <g clip-path="url(#pa0d883ac5c)">
     <use xlink:href="#C1_0_14159db09d" x="93.618982" y="332.551395" style="fill: #ffffff; stroke: #ffffff; stroke-width: 2"/>
    </g>
    <g clip-path="url(#pa0d883ac5c)">
     <use xlink:href="#C1_0_14159db09d" x="113.677478" y="346.912482" style="fill: #ffffff; stroke: #ffffff; stroke-width: 2"/>
    </g>
    <g clip-path="url(#pa0d883ac5c)">
     <use xlink:href="#C1_0_14159db09d" x="137.336217" y="339.479989" style="fill: #ffffff; stroke: #ffffff; stroke-width: 2"/>
    </g>
    <g clip-path="url(#pa0d883ac5c)">
     <use xlink:href="#C1_0_14159db09d" x="159.966314" y="339.479989" style="fill: #ffffff; stroke: #ffffff; stroke-width: 2"/>
    </g>
    <g clip-path="url(#pa0d883ac5c)">
     <use xlink:href="#C1_0_14159db09d" x="182.596412" y="339.479989" style="fill: #ffffff; stroke: #ffffff; stroke-width: 2"/>
    </g>
    <g clip-path="url(#pa0d883ac5c)">
     <use xlink:href="#C1_0_14159db09d" x="205.226509" y="339.479989" style="fill: #ffffff; stroke: #ffffff; stroke-width: 2"/>
    </g>
    <g clip-path="url(#pa0d883ac5c)">
     <use xlink:href="#C1_0_14159db09d" x="218.98458" y="360.517723" style="fill: #ffffff; stroke: #ffffff; stroke-width: 2"/>
    </g>
    <g clip-path="url(#pa0d883ac5c)">
     <use xlink:href="#C1_0_14159db09d" x="237.371535" y="376.768427" style="fill: #ffffff; stroke: #ffffff; stroke-width: 2"/>
    </g>
    <g clip-path="url(#pa0d883ac5c)">
     <use xlink:href="#C1_0_14159db09d" x="260.515953" y="385.586638" style="fill: #ffffff; stroke: #ffffff; stroke-width: 2"/>
    </g>
    <g clip-path="url(#pa0d883ac5c)">
     <use xlink:href="#C1_0_14159db09d" x="285.331912" y="385.586638" style="fill: #ffffff; stroke: #ffffff; stroke-width: 2"/>
    </g>
    <g clip-path="url(#pa0d883ac5c)">
     <use xlink:href="#C1_0_14159db09d" x="308.60491" y="376.768427" style="fill: #ffffff; stroke: #ffffff; stroke-width: 2"/>
    </g>
    <g clip-path="url(#pa0d883ac5c)">
     <use xlink:href="#C1_0_14159db09d" x="326.863284" y="360.517723" style="fill: #ffffff; stroke: #ffffff; stroke-width: 2"/>
    </g>
    <g clip-path="url(#pa0d883ac5c)">
     <use xlink:href="#C1_0_14159db09d" x="340.749935" y="339.479989" style="fill: #ffffff; stroke: #ffffff; stroke-width: 2"/>
    </g>
    <g clip-path="url(#pa0d883ac5c)">
     <use xlink:href="#C1_0_14159db09d" x="363.380033" y="339.479989" style="fill: #ffffff; stroke: #ffffff; stroke-width: 2"/>
    </g>
    <g clip-path="url(#pa0d883ac5c)">
     <use xlink:href="#C1_0_14159db09d" x="386.01013" y="339.479989" style="fill: #ffffff; stroke: #ffffff; stroke-width: 2"/>
    </g>
    <g clip-path="url(#pa0d883ac5c)">
     <use xlink:href="#C1_0_14159db09d" x="408.640228" y="339.479989" style="fill: #ffffff; stroke: #ffffff; stroke-width: 2"/>
    </g>
   </g>
   <g id="PathCollection_3">
    <defs>
     <path id="C2_0_1a05585dc8" d="M 3.288577 3.436273 
L 3.288577 0.847965 
L 1.158851 0.847965 
L 1.158851 -0.224127 
L 4.579632 -0.224127 
L 4.579632 3.915513 
Q 3.825656 4.450527 2.914687 4.725263 
Q 2.005784 5 0.972939 5 
Q -1.286924 5 -2.56352 3.680025 
Q -3.83805 2.357984 -3.83805 0.003099 
Q -3.83805 -2.36005 -2.56352 -3.680025 
Q -1.286924 -5 0.972939 -5 
Q 1.914894 -5 2.763892 -4.766577 
Q 3.61289 -4.53522 4.329684 -4.082834 
L 4.329684 -2.694691 
Q 3.606693 -3.308201 2.792811 -3.618054 
Q 1.97893 -3.927907 1.082421 -3.927907 
Q -0.687874 -3.927907 -1.576121 -2.940508 
Q -2.462301 -1.953109 -2.462301 0.003099 
Q -2.462301 1.953109 -1.576121 2.940508 
Q -0.687874 3.927907 1.082421 3.927907 
Q 1.772361 3.927907 2.313572 3.808098 
Q 2.856848 3.688288 3.288577 3.436273 
z
"/>
    </defs>
    <g clip-path="url(#pa0d883ac5c)">
     <use xlink:href="#C2_0_1a05585dc8" x="250.229545" y="261.879727" style="stroke: #000000"/>
    </g>
    <g clip-path="url(#pa0d883ac5c)">
     <use xlink:href="#C2_0_1a05585dc8" x="272.988222" y="261.879727" style="fill: #ffffff; stroke: #ffffff"/>
    </g>
    <g clip-path="url(#pa0d883ac5c)">
     <use xlink:href="#C2_0_1a05585dc8" x="318.505578" y="261.879727" style="stroke: #000000"/>
    </g>
    <g clip-path="url(#pa0d883ac5c)">
     <use xlink:href="#C2_0_1a05585dc8" x="341.264256" y="195.491192" style="stroke: #000000"/>
    </g>
    <g clip-path="url(#pa0d883ac5c)">
     <use xlink:href="#C2_0_1a05585dc8" x="380.352606" y="128.976682" style="stroke: #000000"/>
    </g>
    <g clip-path="url(#pa0d883ac5c)">
     <use xlink:href="#C2_0_1a05585dc8" x="380.352606" y="151.148185" style="stroke: #000000"/>
    </g>
    <g clip-path="url(#pa0d883ac5c)">
     <use xlink:href="#C2_0_1a05585dc8" x="380.352606" y="173.319688" style="stroke: #000000"/>
    </g>
    <g clip-path="url(#pa0d883ac5c)">
     <use xlink:href="#C2_0_1a05585dc8" x="380.352606" y="217.662695" style="stroke: #000000"/>
    </g>
    <g clip-path="url(#pa0d883ac5c)">
     <use xlink:href="#C2_0_1a05585dc8" x="380.352606" y="262.005702" style="stroke: #000000"/>
    </g>
    <g clip-path="url(#pa0d883ac5c)">
     <use xlink:href="#C2_0_1a05585dc8" x="408.640228" y="301.183756" style="stroke: #000000"/>
    </g>
    <g clip-path="url(#pa0d883ac5c)">
     <use xlink:href="#C2_0_1a05585dc8" x="340.749935" y="301.183756" style="stroke: #000000"/>
    </g>
    <g clip-path="url(#pa0d883ac5c)">
     <use xlink:href="#C2_0_1a05585dc8" x="295.61832" y="301.183756" style="stroke: #000000"/>
    </g>
    <g clip-path="url(#pa0d883ac5c)">
     <use xlink:href="#C2_0_1a05585dc8" x="205.226509" y="301.183756" style="stroke: #000000"/>
    </g>
    <g clip-path="url(#pa0d883ac5c)">
     <use xlink:href="#C2_0_1a05585dc8" x="113.677478" y="346.912482" style="stroke: #000000"/>
    </g>
    <g clip-path="url(#pa0d883ac5c)">
     <use xlink:href="#C2_0_1a05585dc8" x="137.336217" y="339.479989" style="stroke: #000000"/>
    </g>
    <g clip-path="url(#pa0d883ac5c)">
     <use xlink:href="#C2_0_1a05585dc8" x="182.596412" y="339.479989" style="stroke: #000000"/>
    </g>
    <g clip-path="url(#pa0d883ac5c)">
     <use xlink:href="#C2_0_1a05585dc8" x="363.380033" y="339.479989" style="stroke: #000000"/>
    </g>
    <g clip-path="url(#pa0d883ac5c)">
     <use xlink:href="#C2_0_1a05585dc8" x="386.01013" y="339.479989" style="stroke: #000000"/>
    </g>
   </g>
   <g id="PathCollection_4">
    <defs>
     <path id="C3_0_2cfcafb97b" d="M -3.170065 -5 
L -1.83519 -5 
L -1.83519 0.959638 
Q -1.83519 2.536262 -1.265503 3.229977 
Q -0.693715 3.921589 0.588606 3.921589 
Q 1.862518 3.921589 2.434307 3.229977 
Q 3.006096 2.536262 3.006096 0.959638 
L 3.006096 -5 
L 4.338869 -5 
L 4.338869 1.123607 
Q 4.338869 3.040782 3.38869 4.020391 
Q 2.440614 5 0.588606 5 
Q -1.27181 5 -2.221989 4.020391 
Q -3.170065 3.040782 -3.170065 1.123607 
L -3.170065 -5 
z
"/>
    </defs>
    <g clip-path="url(#pa0d883ac5c)">
     <use xlink:href="#C3_0_2cfcafb97b" x="341.264256" y="239.834199" style="stroke: #000000"/>
    </g>
    <g clip-path="url(#pa0d883ac5c)">
     <use xlink:href="#C3_0_2cfcafb97b" x="318.119837" y="301.183756" style="stroke: #000000"/>
    </g>
    <g clip-path="url(#pa0d883ac5c)">
     <use xlink:href="#C3_0_2cfcafb97b" x="159.966314" y="301.183756" style="stroke: #000000"/>
    </g>
    <g clip-path="url(#pa0d883ac5c)">
     <use xlink:href="#C3_0_2cfcafb97b" x="113.677478" y="293.751264" style="stroke: #000000"/>
    </g>
    <g clip-path="url(#pa0d883ac5c)">
     <use xlink:href="#C3_0_2cfcafb97b" x="93.618982" y="308.112351" style="stroke: #000000"/>
    </g>
    <g clip-path="url(#pa0d883ac5c)">
     <use xlink:href="#C3_0_2cfcafb97b" x="260.515953" y="385.586638" style="stroke: #000000"/>
    </g>
    <g clip-path="url(#pa0d883ac5c)">
     <use xlink:href="#C3_0_2cfcafb97b" x="326.863284" y="360.517723" style="stroke: #000000"/>
    </g>
   </g>
   <g id="PathCollection_5">
    <defs>
     <path id="C4_0_38e274ee22" d="M 0.054651 -3.666952 
L -1.78204 1.309473 
L 1.895628 1.309473 
L 0.054651 -3.666952 
z
M -0.710459 -5 
L 0.824046 -5 
L 4.634591 5 
L 3.228676 5 
L 2.317831 2.434634 
L -2.189241 2.434634 
L -3.100086 5 
L -4.527432 5 
L -0.710459 -5 
z
"/>
    </defs>
    <g clip-path="url(#pa0d883ac5c)">
     <use xlink:href="#C4_0_38e274ee22" x="295.7469" y="261.879727" style="fill: #ffffff; stroke: #ffffff"/>
    </g>
    <g clip-path="url(#pa0d883ac5c)">
     <use xlink:href="#C4_0_38e274ee22" x="380.352606" y="239.834199" style="stroke: #000000"/>
    </g>
    <g clip-path="url(#pa0d883ac5c)">
     <use xlink:href="#C4_0_38e274ee22" x="227.856607" y="301.183756" style="stroke: #000000"/>
    </g>
    <g clip-path="url(#pa0d883ac5c)">
     <use xlink:href="#C4_0_38e274ee22" x="159.966314" y="339.479989" style="stroke: #000000"/>
    </g>
    <g clip-path="url(#pa0d883ac5c)">
     <use xlink:href="#C4_0_38e274ee22" x="218.98458" y="360.517723" style="stroke: #000000"/>
    </g>
    <g clip-path="url(#pa0d883ac5c)">
     <use xlink:href="#C4_0_38e274ee22" x="237.371535" y="376.768427" style="stroke: #000000"/>
    </g>
    <g clip-path="url(#pa0d883ac5c)">
     <use xlink:href="#C4_0_38e274ee22" x="285.331912" y="385.586638" style="stroke: #000000"/>
    </g>
   </g>
   <g id="PathCollection_6">
    <defs>
     <path id="C5_0_6c34007660" d="M 4.257385 -4.082834 
L 4.257385 -2.709151 
Q 3.59843 -3.322661 2.852716 -3.624251 
Q 2.107003 -3.927907 1.268333 -3.927907 
Q -0.384218 -3.927907 -1.262136 -2.917786 
Q -2.140054 -1.907664 -2.140054 0.003099 
Q -2.140054 1.907664 -1.262136 2.917786 
Q -0.384218 3.927907 1.268333 3.927907 
Q 2.107003 3.927907 2.852716 3.624251 
Q 3.59843 3.320595 4.257385 2.707085 
L 4.257385 4.07044 
Q 3.573642 4.53522 2.807271 4.768643 
Q 2.042966 5 1.191902 5 
Q -0.997728 5 -2.257798 3.661434 
Q -3.515803 2.320801 -3.515803 0.003099 
Q -3.515803 -2.320801 -2.257798 -3.659368 
Q -0.997728 -5 1.191902 -5 
Q 2.05536 -5 2.819665 -4.770709 
Q 3.586036 -4.541417 4.257385 -4.082834 
z
"/>
    </defs>
    <g clip-path="url(#pa0d883ac5c)">
     <use xlink:href="#C5_0_6c34007660" x="341.264256" y="262.005702" style="stroke: #000000"/>
    </g>
    <g clip-path="url(#pa0d883ac5c)">
     <use xlink:href="#C5_0_6c34007660" x="341.264256" y="217.662695" style="stroke: #000000"/>
    </g>
    <g clip-path="url(#pa0d883ac5c)">
     <use xlink:href="#C5_0_6c34007660" x="341.264256" y="173.319688" style="stroke: #000000"/>
    </g>
    <g clip-path="url(#pa0d883ac5c)">
     <use xlink:href="#C5_0_6c34007660" x="341.264256" y="151.148185" style="stroke: #000000"/>
    </g>
    <g clip-path="url(#pa0d883ac5c)">
     <use xlink:href="#C5_0_6c34007660" x="341.264256" y="128.976682" style="stroke: #000000"/>
    </g>
    <g clip-path="url(#pa0d883ac5c)">
     <use xlink:href="#C5_0_6c34007660" x="380.352606" y="195.491192" style="stroke: #000000"/>
    </g>
    <g clip-path="url(#pa0d883ac5c)">
     <use xlink:href="#C5_0_6c34007660" x="386.01013" y="301.183756" style="stroke: #000000"/>
    </g>
    <g clip-path="url(#pa0d883ac5c)">
     <use xlink:href="#C5_0_6c34007660" x="363.380033" y="301.183756" style="stroke: #000000"/>
    </g>
    <g clip-path="url(#pa0d883ac5c)">
     <use xlink:href="#C5_0_6c34007660" x="272.988222" y="301.183756" style="stroke: #000000"/>
    </g>
    <g clip-path="url(#pa0d883ac5c)">
     <use xlink:href="#C5_0_6c34007660" x="250.358125" y="301.183756" style="stroke: #000000"/>
    </g>
    <g clip-path="url(#pa0d883ac5c)">
     <use xlink:href="#C5_0_6c34007660" x="182.596412" y="301.183756" style="stroke: #000000"/>
    </g>
    <g clip-path="url(#pa0d883ac5c)">
     <use xlink:href="#C5_0_6c34007660" x="137.336217" y="301.183756" style="stroke: #000000"/>
    </g>
    <g clip-path="url(#pa0d883ac5c)">
     <use xlink:href="#C5_0_6c34007660" x="93.618982" y="332.551395" style="stroke: #000000"/>
    </g>
    <g clip-path="url(#pa0d883ac5c)">
     <use xlink:href="#C5_0_6c34007660" x="205.226509" y="339.479989" style="stroke: #000000"/>
    </g>
    <g clip-path="url(#pa0d883ac5c)">
     <use xlink:href="#C5_0_6c34007660" x="308.60491" y="376.768427" style="stroke: #000000"/>
    </g>
    <g clip-path="url(#pa0d883ac5c)">
     <use xlink:href="#C5_0_6c34007660" x="340.749935" y="339.479989" style="stroke: #000000"/>
    </g>
    <g clip-path="url(#pa0d883ac5c)">
     <use xlink:href="#C5_0_6c34007660" x="408.640228" y="339.479989" style="stroke: #000000"/>
    </g>
   </g>
   <g id="PathCollection_7"/>
   <g id="PathCollection_8"/>
   <g id="PathCollection_9"/>
   <g id="PathCollection_10"/>
  </g>
 </g>
 <defs>
  <clipPath id="pa0d883ac5c">
   <rect x="38.77957" y="77.849951" width="424.700071" height="358.863419"/>
  </clipPath>
 </defs>
</svg>
