<?xml version="1.0" encoding="utf-8" standalone="no"?>
<!DOCTYPE svg PUBLIC "-//W3C//DTD SVG 1.1//EN"
  "http://www.w3.org/Graphics/SVG/1.1/DTD/svg11.dtd">
<svg xmlns:xlink="http://www.w3.org/1999/xlink" width="223.010526pt" height="298.894737pt" viewBox="0 0 223.010526 298.894737" xmlns="http://www.w3.org/2000/svg" version="1.1">
 <metadata>
  <rdf:RDF xmlns:dc="http://purl.org/dc/elements/1.1/" xmlns:cc="http://creativecommons.org/ns#" xmlns:rdf="http://www.w3.org/1999/02/22-rdf-syntax-ns#">
   <cc:Work>
    <dc:type rdf:resource="http://purl.org/dc/dcmitype/StillImage"/>
    <dc:date>2024-03-15T02:11:19.605916</dc:date>
    <dc:format>image/svg+xml</dc:format>
    <dc:creator>
     <cc:Agent>
      <dc:title>Matplotlib v3.7.0, https://matplotlib.org/</dc:title>
     </cc:Agent>
    </dc:creator>
   </cc:Work>
  </rdf:RDF>
 </metadata>
 <defs>
  <style type="text/css">*{stroke-linejoin: round; stroke-linecap: butt}</style>
 </defs>
 <g id="figure_1">
  <g id="patch_1">
   <path d="M 0 298.894737 
L 223.010526 298.894737 
L 223.010526 0 
L 0 0 
z
" style="fill: #ffffff"/>
  </g>
  <g id="axes_1">
   <g id="line2d_1">
    <path d="M 98.873684 143.005263 
L 106.326316 143.005263 
" clip-path="url(#p8435be1992)" style="fill: none; stroke: #808080; stroke-width: 1.2; stroke-linecap: round"/>
   </g>
   <g id="line2d_2">
    <path d="M 98.92102 151.182353 
L 102.205296 151.170279 
" clip-path="url(#p8435be1992)" style="fill: none; stroke: #808080; stroke-width: 1.2; stroke-linecap: round"/>
   </g>
   <g id="line2d_3">
    <path d="M 98.873684 160.247368 
L 102.205263 160.247368 
" clip-path="url(#p8435be1992)" style="fill: none; stroke: #808080; stroke-width: 1.2; stroke-linecap: round"/>
   </g>
   <g id="line2d_4">
    <path d="M 98.873666 168.360702 
L 106.326334 168.381404 
" clip-path="url(#p8435be1992)" style="fill: none; stroke: #808080; stroke-width: 1.2; stroke-linecap: round"/>
   </g>
   <g id="line2d_5">
    <path d="M 123.505263 226.657895 
L 128.305263 226.657895 
" clip-path="url(#p8435be1992)" style="fill: none; stroke: #808080; stroke-width: 1.2; stroke-linecap: round"/>
   </g>
   <g id="line2d_6">
    <path d="M 123.505263 218.321053 
L 128.305263 218.321053 
" clip-path="url(#p8435be1992)" style="fill: none; stroke: #808080; stroke-width: 1.2; stroke-linecap: round"/>
   </g>
   <g id="line2d_7">
    <path d="M 123.505263 200.178947 
L 128.305263 200.178947 
" clip-path="url(#p8435be1992)" style="fill: none; stroke: #808080; stroke-width: 1.2; stroke-linecap: round"/>
   </g>
   <g id="line2d_8">
    <path d="M 123.505263 191.842105 
L 128.305263 191.842105 
" clip-path="url(#p8435be1992)" style="fill: none; stroke: #808080; stroke-width: 1.2; stroke-linecap: round"/>
   </g>
   <g id="line2d_9">
    <path d="M 123.505263 183.505263 
L 128.305263 183.505263 
" clip-path="url(#p8435be1992)" style="fill: none; stroke: #808080; stroke-width: 1.2; stroke-linecap: round"/>
   </g>
   <g id="line2d_10">
    <path d="M 123.505263 175.168421 
L 128.305263 175.168421 
" clip-path="url(#p8435be1992)" style="fill: none; stroke: #808080; stroke-width: 1.2; stroke-linecap: round"/>
   </g>
   <g id="line2d_11">
    <path d="M 123.505263 136.231579 
L 128.305263 136.231579 
" clip-path="url(#p8435be1992)" style="fill: none; stroke: #808080; stroke-width: 1.2; stroke-linecap: round"/>
   </g>
   <g id="line2d_12">
    <path d="M 123.505263 127.894737 
L 128.305263 127.894737 
" clip-path="url(#p8435be1992)" style="fill: none; stroke: #808080; stroke-width: 1.2; stroke-linecap: round"/>
   </g>
   <g id="LineCollection_1">
    <path d="M 94.073684 143.005263 
L 94.097368 147.102632 
L 94.121053 151.2 
L 94.097368 155.723684 
L 94.073684 160.247368 
L 94.073684 164.297368 
L 94.073684 168.347368 
L 90.118421 169.294737 
L 86.163158 170.242105 
L 82.563158 172.136842 
L 78.963158 174.031579 
L 75.931579 176.778947 
L 72.9 179.526316 
L 70.626316 182.889474 
L 68.352632 186.252632 
L 66.978947 190.113158 
L 65.605263 193.973684 
L 65.202632 198.023684 
L 64.8 202.073684 
L 65.439474 206.1 
L 66.078947 210.126316 
L 67.665789 213.868421 
L 69.252632 217.610526 
L 71.692105 220.878947 
L 74.131579 224.147368 
L 77.328947 226.681579 
L 80.526316 229.215789 
L 84.221053 230.921053 
L 87.915789 232.626316 
L 91.918421 233.360526 
L 95.921053 234.094737 
L 99.994737 233.810526 
L 104.068421 233.526316 
L 107.952632 232.271053 
L 111.836842 231.015789 
L 115.271053 228.836842 
L 118.705263 226.657895 
L 118.705263 222.489474 
L 118.705263 218.321053 
L 118.705263 209.25 
L 118.705263 200.178947 
L 118.705263 196.010526 
L 118.705263 191.842105 
L 118.705263 187.673684 
L 118.705263 183.505263 
L 118.705263 179.336842 
L 118.705263 175.168421 
L 114.915789 171.781579 
L 111.126316 168.394737 
L 109.065789 164.321053 
L 107.005263 160.247368 
L 107.005263 155.7 
L 107.005263 151.152632 
L 109.065789 147.078947 
L 111.126316 143.005263 
L 114.915789 139.618421 
L 118.705263 136.231579 
L 118.705263 132.063158 
L 118.705263 127.894737 
L 115.626316 124.389474 
L 112.547368 120.884211 
L 112.215789 116.242105 
L 111.884211 111.6 
L 114.465789 107.715789 
L 117.047368 103.831579 
L 121.476316 102.315789 
L 125.905263 100.8 
L 130.334211 102.315789 
L 134.763158 103.831579 
L 137.344737 107.715789 
L 139.926316 111.6 
L 139.594737 116.242105 
L 139.263158 120.884211 
L 136.184211 124.389474 
L 133.105263 127.894737 
L 133.105263 132.063158 
L 133.105263 136.231579 
L 137.297368 140.092105 
L 141.489474 143.952632 
L 143.455263 149.826316 
L 145.421053 155.7 
L 143.455263 161.55 
L 141.489474 167.4 
L 137.297368 171.284211 
L 133.105263 175.168421 
L 133.105263 179.336842 
L 133.105263 183.505263 
L 133.105263 187.673684 
L 133.105263 191.842105 
L 133.105263 196.010526 
L 133.105263 200.178947 
L 134.052632 204.726316 
L 135 209.273684 
L 134.052632 213.797368 
L 133.105263 218.321053 
L 133.105263 222.489474 
L 133.105263 226.657895 
L 137.297368 226.657895 
L 141.489474 226.657895 
L 145.657895 226.657895 
L 149.826316 226.657895 
L 154.018421 226.657895 
L 158.210526 226.657895 
" clip-path="url(#p8435be1992)" style="fill: none; stroke: #808080"/>
   </g>
   <g id="text_1">
    <text style="fill: #262626; font: 9.6px 'Arial', 'DejaVu Sans', 'Liberation Sans', 'Bitstream Vera Sans', sans-serif; text-anchor: middle" x="111.505263" y="66" transform="rotate(-0 111.505263 66)">6fz0</text>
   </g>
   <g id="PathCollection_1">
    <defs>
     <path id="C0_0_350044faa0" d="M 0 2.5 
C 0.663008 2.5 1.29895 2.236584 1.767767 1.767767 
C 2.236584 1.29895 2.5 0.663008 2.5 -0 
C 2.5 -0.663008 2.236584 -1.29895 1.767767 -1.767767 
C 1.29895 -2.236584 0.663008 -2.5 0 -2.5 
C -0.663008 -2.5 -1.29895 -2.236584 -1.767767 -1.767767 
C -2.236584 -1.29895 -2.5 -0.663008 -2.5 0 
C -2.5 0.663008 -2.236584 1.29895 -1.767767 1.767767 
C -1.29895 2.236584 -0.663008 2.5 0 2.5 
z
"/>
    </defs>
    <g clip-path="url(#p8435be1992)">
     <use xlink:href="#C0_0_350044faa0" x="94.073684" y="143.005263" style="fill: #ffffff"/>
    </g>
    <g clip-path="url(#p8435be1992)">
     <use xlink:href="#C0_0_350044faa0" x="94.121053" y="151.2" style="fill: #ffffff"/>
    </g>
    <g clip-path="url(#p8435be1992)">
     <use xlink:href="#C0_0_350044faa0" x="94.073684" y="160.247368" style="fill: #ffffff"/>
    </g>
    <g clip-path="url(#p8435be1992)">
     <use xlink:href="#C0_0_350044faa0" x="94.073684" y="168.347368" style="fill: #ffffff"/>
    </g>
    <g clip-path="url(#p8435be1992)">
     <use xlink:href="#C0_0_350044faa0" x="86.163158" y="170.242105" style="fill: #ffffff"/>
    </g>
    <g clip-path="url(#p8435be1992)">
     <use xlink:href="#C0_0_350044faa0" x="78.963158" y="174.031579" style="fill: #ffffff"/>
    </g>
    <g clip-path="url(#p8435be1992)">
     <use xlink:href="#C0_0_350044faa0" x="72.9" y="179.526316" style="fill: #f66c00"/>
    </g>
    <g clip-path="url(#p8435be1992)">
     <use xlink:href="#C0_0_350044faa0" x="68.352632" y="186.252632" style="fill: #f66c00"/>
    </g>
    <g clip-path="url(#p8435be1992)">
     <use xlink:href="#C0_0_350044faa0" x="65.605263" y="193.973684" style="fill: #f66c00"/>
    </g>
    <g clip-path="url(#p8435be1992)">
     <use xlink:href="#C0_0_350044faa0" x="64.8" y="202.073684" style="fill: #1c6f2e"/>
    </g>
    <g clip-path="url(#p8435be1992)">
     <use xlink:href="#C0_0_350044faa0" x="66.078947" y="210.126316" style="fill: #1c6f2e"/>
    </g>
    <g clip-path="url(#p8435be1992)">
     <use xlink:href="#C0_0_350044faa0" x="69.252632" y="217.610526" style="fill: #ffffff"/>
    </g>
    <g clip-path="url(#p8435be1992)">
     <use xlink:href="#C0_0_350044faa0" x="74.131579" y="224.147368" style="fill: #ffffff"/>
    </g>
    <g clip-path="url(#p8435be1992)">
     <use xlink:href="#C0_0_350044faa0" x="80.526316" y="229.215789" style="fill: #ffffff"/>
    </g>
    <g clip-path="url(#p8435be1992)">
     <use xlink:href="#C0_0_350044faa0" x="87.915789" y="232.626316" style="fill: #1c6f2e"/>
    </g>
    <g clip-path="url(#p8435be1992)">
     <use xlink:href="#C0_0_350044faa0" x="95.921053" y="234.094737" style="fill: #1c6f2e"/>
    </g>
    <g clip-path="url(#p8435be1992)">
     <use xlink:href="#C0_0_350044faa0" x="104.068421" y="233.526316" style="fill: #1c6f2e"/>
    </g>
    <g clip-path="url(#p8435be1992)">
     <use xlink:href="#C0_0_350044faa0" x="111.836842" y="231.015789" style="fill: #1c6f2e"/>
    </g>
    <g clip-path="url(#p8435be1992)">
     <use xlink:href="#C0_0_350044faa0" x="118.705263" y="226.657895" style="fill: #1c6f2e"/>
    </g>
    <g clip-path="url(#p8435be1992)">
     <use xlink:href="#C0_0_350044faa0" x="118.705263" y="218.321053" style="fill: #f66c00"/>
    </g>
    <g clip-path="url(#p8435be1992)">
     <use xlink:href="#C0_0_350044faa0" x="118.705263" y="200.178947" style="fill: #f66c00"/>
    </g>
    <g clip-path="url(#p8435be1992)">
     <use xlink:href="#C0_0_350044faa0" x="118.705263" y="191.842105" style="fill: #ffffff"/>
    </g>
    <g clip-path="url(#p8435be1992)">
     <use xlink:href="#C0_0_350044faa0" x="118.705263" y="183.505263" style="fill: #ffffff"/>
    </g>
    <g clip-path="url(#p8435be1992)">
     <use xlink:href="#C0_0_350044faa0" x="118.705263" y="175.168421" style="fill: #ffffff"/>
    </g>
    <g clip-path="url(#p8435be1992)">
     <use xlink:href="#C0_0_350044faa0" x="111.126316" y="168.394737" style="fill: #ffffff"/>
    </g>
    <g clip-path="url(#p8435be1992)">
     <use xlink:href="#C0_0_350044faa0" x="107.005263" y="160.247368" style="fill: #ffffff"/>
    </g>
    <g clip-path="url(#p8435be1992)">
     <use xlink:href="#C0_0_350044faa0" x="107.005263" y="151.152632" style="fill: #ffffff"/>
    </g>
    <g clip-path="url(#p8435be1992)">
     <use xlink:href="#C0_0_350044faa0" x="111.126316" y="143.005263" style="fill: #ffffff"/>
    </g>
    <g clip-path="url(#p8435be1992)">
     <use xlink:href="#C0_0_350044faa0" x="118.705263" y="136.231579" style="fill: #ffffff"/>
    </g>
    <g clip-path="url(#p8435be1992)">
     <use xlink:href="#C0_0_350044faa0" x="118.705263" y="127.894737" style="fill: #ffffff"/>
    </g>
    <g clip-path="url(#p8435be1992)">
     <use xlink:href="#C0_0_350044faa0" x="112.547368" y="120.884211" style="fill: #ffffff"/>
    </g>
    <g clip-path="url(#p8435be1992)">
     <use xlink:href="#C0_0_350044faa0" x="111.884211" y="111.6" style="fill: #ffffff"/>
    </g>
    <g clip-path="url(#p8435be1992)">
     <use xlink:href="#C0_0_350044faa0" x="117.047368" y="103.831579" style="fill: #ffffff"/>
    </g>
    <g clip-path="url(#p8435be1992)">
     <use xlink:href="#C0_0_350044faa0" x="125.905263" y="100.8" style="fill: #ffffff"/>
    </g>
    <g clip-path="url(#p8435be1992)">
     <use xlink:href="#C0_0_350044faa0" x="134.763158" y="103.831579" style="fill: #ffffff"/>
    </g>
    <g clip-path="url(#p8435be1992)">
     <use xlink:href="#C0_0_350044faa0" x="139.926316" y="111.6" style="fill: #ffffff"/>
    </g>
    <g clip-path="url(#p8435be1992)">
     <use xlink:href="#C0_0_350044faa0" x="139.263158" y="120.884211" style="fill: #ffffff"/>
    </g>
    <g clip-path="url(#p8435be1992)">
     <use xlink:href="#C0_0_350044faa0" x="133.105263" y="127.894737" style="fill: #ffffff"/>
    </g>
    <g clip-path="url(#p8435be1992)">
     <use xlink:href="#C0_0_350044faa0" x="133.105263" y="136.231579" style="fill: #ffffff"/>
    </g>
    <g clip-path="url(#p8435be1992)">
     <use xlink:href="#C0_0_350044faa0" x="141.489474" y="143.952632" style="fill: #ffffff"/>
    </g>
    <g clip-path="url(#p8435be1992)">
     <use xlink:href="#C0_0_350044faa0" x="145.421053" y="155.7" style="fill: #ffffff"/>
    </g>
    <g clip-path="url(#p8435be1992)">
     <use xlink:href="#C0_0_350044faa0" x="141.489474" y="167.4" style="fill: #ffffff"/>
    </g>
    <g clip-path="url(#p8435be1992)">
     <use xlink:href="#C0_0_350044faa0" x="133.105263" y="175.168421" style="fill: #ffffff"/>
    </g>
    <g clip-path="url(#p8435be1992)">
     <use xlink:href="#C0_0_350044faa0" x="133.105263" y="183.505263" style="fill: #ffffff"/>
    </g>
    <g clip-path="url(#p8435be1992)">
     <use xlink:href="#C0_0_350044faa0" x="133.105263" y="191.842105" style="fill: #ffffff"/>
    </g>
    <g clip-path="url(#p8435be1992)">
     <use xlink:href="#C0_0_350044faa0" x="133.105263" y="200.178947" style="fill: #ffffff"/>
    </g>
    <g clip-path="url(#p8435be1992)">
     <use xlink:href="#C0_0_350044faa0" x="135" y="209.273684" style="fill: #f66c00"/>
    </g>
    <g clip-path="url(#p8435be1992)">
     <use xlink:href="#C0_0_350044faa0" x="133.105263" y="218.321053" style="fill: #f66c00"/>
    </g>
    <g clip-path="url(#p8435be1992)">
     <use xlink:href="#C0_0_350044faa0" x="133.105263" y="226.657895" style="fill: #1c6f2e"/>
    </g>
    <g clip-path="url(#p8435be1992)">
     <use xlink:href="#C0_0_350044faa0" x="141.489474" y="226.657895" style="fill: #1c6f2e"/>
    </g>
    <g clip-path="url(#p8435be1992)">
     <use xlink:href="#C0_0_350044faa0" x="149.826316" y="226.657895" style="fill: #ffffff"/>
    </g>
    <g clip-path="url(#p8435be1992)">
     <use xlink:href="#C0_0_350044faa0" x="158.210526" y="226.657895" style="fill: #ffffff"/>
    </g>
   </g>
   <g id="PathCollection_2">
    <defs>
     <path id="C1_0_73772cbe89" d="M 0.986573 1.030882 
L 0.986573 0.25439 
L 0.347655 0.25439 
L 0.347655 -0.067238 
L 1.37389 -0.067238 
L 1.37389 1.174654 
Q 1.147697 1.335158 0.874406 1.417579 
Q 0.601735 1.5 0.291882 1.5 
Q -0.386077 1.5 -0.769056 1.104007 
Q -1.151415 0.707395 -1.151415 0.00093 
Q -1.151415 -0.708015 -0.769056 -1.104007 
Q -0.386077 -1.5 0.291882 -1.5 
Q 0.574468 -1.5 0.829168 -1.429973 
Q 1.083867 -1.360566 1.298905 -1.22485 
L 1.298905 -0.808407 
Q 1.082008 -0.99246 0.837843 -1.085416 
Q 0.593679 -1.178372 0.324726 -1.178372 
Q -0.206362 -1.178372 -0.472836 -0.882152 
Q -0.73869 -0.585933 -0.73869 0.00093 
Q -0.73869 0.585933 -0.472836 0.882152 
Q -0.206362 1.178372 0.324726 1.178372 
Q 0.531708 1.178372 0.694071 1.142429 
Q 0.857054 1.106486 0.986573 1.030882 
z
"/>
    </defs>
    <g clip-path="url(#p8435be1992)">
     <use xlink:href="#C1_0_73772cbe89" x="94.121053" y="151.2" style="stroke: #000000; stroke-width: 0.3"/>
    </g>
    <g clip-path="url(#p8435be1992)">
     <use xlink:href="#C1_0_73772cbe89" x="94.073684" y="160.247368" style="stroke: #000000; stroke-width: 0.3"/>
    </g>
    <g clip-path="url(#p8435be1992)">
     <use xlink:href="#C1_0_73772cbe89" x="86.163158" y="170.242105" style="stroke: #000000; stroke-width: 0.3"/>
    </g>
    <g clip-path="url(#p8435be1992)">
     <use xlink:href="#C1_0_73772cbe89" x="66.078947" y="210.126316" style="fill: #ffffff; stroke: #ffffff; stroke-width: 0.3"/>
    </g>
    <g clip-path="url(#p8435be1992)">
     <use xlink:href="#C1_0_73772cbe89" x="95.921053" y="234.094737" style="fill: #ffffff; stroke: #ffffff; stroke-width: 0.3"/>
    </g>
    <g clip-path="url(#p8435be1992)">
     <use xlink:href="#C1_0_73772cbe89" x="118.705263" y="200.178947" style="fill: #ffffff; stroke: #ffffff; stroke-width: 0.3"/>
    </g>
    <g clip-path="url(#p8435be1992)">
     <use xlink:href="#C1_0_73772cbe89" x="111.126316" y="168.394737" style="stroke: #000000; stroke-width: 0.3"/>
    </g>
    <g clip-path="url(#p8435be1992)">
     <use xlink:href="#C1_0_73772cbe89" x="118.705263" y="127.894737" style="stroke: #000000; stroke-width: 0.3"/>
    </g>
    <g clip-path="url(#p8435be1992)">
     <use xlink:href="#C1_0_73772cbe89" x="139.263158" y="120.884211" style="stroke: #000000; stroke-width: 0.3"/>
    </g>
    <g clip-path="url(#p8435be1992)">
     <use xlink:href="#C1_0_73772cbe89" x="133.105263" y="175.168421" style="stroke: #000000; stroke-width: 0.3"/>
    </g>
   </g>
   <g id="PathCollection_3">
    <defs>
     <path id="C2_0_cb4151fdc3" d="M -0.95102 -1.5 
L -0.550557 -1.5 
L -0.550557 0.287892 
Q -0.550557 0.760879 -0.379651 0.968993 
Q -0.208114 1.176477 0.176582 1.176477 
Q 0.558756 1.176477 0.730292 0.968993 
Q 0.901829 0.760879 0.901829 0.287892 
L 0.901829 -1.5 
L 1.301661 -1.5 
L 1.301661 0.337082 
Q 1.301661 0.912235 1.016607 1.206117 
Q 0.732184 1.5 0.176582 1.5 
Q -0.381543 1.5 -0.666597 1.206117 
Q -0.95102 0.912235 -0.95102 0.337082 
L -0.95102 -1.5 
z
"/>
    </defs>
    <g clip-path="url(#p8435be1992)">
     <use xlink:href="#C2_0_cb4151fdc3" x="68.352632" y="186.252632" style="fill: #ffffff; stroke: #ffffff; stroke-width: 0.3"/>
    </g>
    <g clip-path="url(#p8435be1992)">
     <use xlink:href="#C2_0_cb4151fdc3" x="65.605263" y="193.973684" style="fill: #ffffff; stroke: #ffffff; stroke-width: 0.3"/>
    </g>
    <g clip-path="url(#p8435be1992)">
     <use xlink:href="#C2_0_cb4151fdc3" x="64.8" y="202.073684" style="fill: #ffffff; stroke: #ffffff; stroke-width: 0.3"/>
    </g>
    <g clip-path="url(#p8435be1992)">
     <use xlink:href="#C2_0_cb4151fdc3" x="87.915789" y="232.626316" style="fill: #ffffff; stroke: #ffffff; stroke-width: 0.3"/>
    </g>
    <g clip-path="url(#p8435be1992)">
     <use xlink:href="#C2_0_cb4151fdc3" x="104.068421" y="233.526316" style="fill: #ffffff; stroke: #ffffff; stroke-width: 0.3"/>
    </g>
    <g clip-path="url(#p8435be1992)">
     <use xlink:href="#C2_0_cb4151fdc3" x="118.705263" y="226.657895" style="fill: #ffffff; stroke: #ffffff; stroke-width: 0.3"/>
    </g>
    <g clip-path="url(#p8435be1992)">
     <use xlink:href="#C2_0_cb4151fdc3" x="118.705263" y="218.321053" style="fill: #ffffff; stroke: #ffffff; stroke-width: 0.3"/>
    </g>
    <g clip-path="url(#p8435be1992)">
     <use xlink:href="#C2_0_cb4151fdc3" x="118.705263" y="191.842105" style="stroke: #000000; stroke-width: 0.3"/>
    </g>
    <g clip-path="url(#p8435be1992)">
     <use xlink:href="#C2_0_cb4151fdc3" x="111.126316" y="143.005263" style="stroke: #000000; stroke-width: 0.3"/>
    </g>
    <g clip-path="url(#p8435be1992)">
     <use xlink:href="#C2_0_cb4151fdc3" x="118.705263" y="136.231579" style="stroke: #000000; stroke-width: 0.3"/>
    </g>
    <g clip-path="url(#p8435be1992)">
     <use xlink:href="#C2_0_cb4151fdc3" x="117.047368" y="103.831579" style="stroke: #000000; stroke-width: 0.3"/>
    </g>
    <g clip-path="url(#p8435be1992)">
     <use xlink:href="#C2_0_cb4151fdc3" x="133.105263" y="183.505263" style="stroke: #000000; stroke-width: 0.3"/>
    </g>
    <g clip-path="url(#p8435be1992)">
     <use xlink:href="#C2_0_cb4151fdc3" x="135" y="209.273684" style="fill: #ffffff; stroke: #ffffff; stroke-width: 0.3"/>
    </g>
   </g>
   <g id="PathCollection_4"/>
   <g id="PathCollection_5">
    <defs>
     <path id="C3_0_1e0a3ae92e" d="M 0.016395 -1.100086 
L -0.534612 0.392842 
L 0.568688 0.392842 
L 0.016395 -1.100086 
z
M -0.213138 -1.5 
L 0.247214 -1.5 
L 1.390377 1.5 
L 0.968603 1.5 
L 0.695349 0.73039 
L -0.656772 0.73039 
L -0.930026 1.5 
L -1.35823 1.5 
L -0.213138 -1.5 
z
"/>
    </defs>
    <g clip-path="url(#p8435be1992)">
     <use xlink:href="#C3_0_1e0a3ae92e" x="94.073684" y="143.005263" style="stroke: #000000; stroke-width: 0.3"/>
    </g>
    <g clip-path="url(#p8435be1992)">
     <use xlink:href="#C3_0_1e0a3ae92e" x="72.9" y="179.526316" style="fill: #ffffff; stroke: #ffffff; stroke-width: 0.3"/>
    </g>
    <g clip-path="url(#p8435be1992)">
     <use xlink:href="#C3_0_1e0a3ae92e" x="69.252632" y="217.610526" style="stroke: #000000; stroke-width: 0.3"/>
    </g>
    <g clip-path="url(#p8435be1992)">
     <use xlink:href="#C3_0_1e0a3ae92e" x="74.131579" y="224.147368" style="stroke: #000000; stroke-width: 0.3"/>
    </g>
    <g clip-path="url(#p8435be1992)">
     <use xlink:href="#C3_0_1e0a3ae92e" x="111.836842" y="231.015789" style="fill: #ffffff; stroke: #ffffff; stroke-width: 0.3"/>
    </g>
    <g clip-path="url(#p8435be1992)">
     <use xlink:href="#C3_0_1e0a3ae92e" x="118.705263" y="183.505263" style="stroke: #000000; stroke-width: 0.3"/>
    </g>
    <g clip-path="url(#p8435be1992)">
     <use xlink:href="#C3_0_1e0a3ae92e" x="111.884211" y="111.6" style="stroke: #000000; stroke-width: 0.3"/>
    </g>
    <g clip-path="url(#p8435be1992)">
     <use xlink:href="#C3_0_1e0a3ae92e" x="125.905263" y="100.8" style="stroke: #000000; stroke-width: 0.3"/>
    </g>
    <g clip-path="url(#p8435be1992)">
     <use xlink:href="#C3_0_1e0a3ae92e" x="134.763158" y="103.831579" style="stroke: #000000; stroke-width: 0.3"/>
    </g>
    <g clip-path="url(#p8435be1992)">
     <use xlink:href="#C3_0_1e0a3ae92e" x="139.926316" y="111.6" style="stroke: #000000; stroke-width: 0.3"/>
    </g>
    <g clip-path="url(#p8435be1992)">
     <use xlink:href="#C3_0_1e0a3ae92e" x="133.105263" y="136.231579" style="stroke: #000000; stroke-width: 0.3"/>
    </g>
    <g clip-path="url(#p8435be1992)">
     <use xlink:href="#C3_0_1e0a3ae92e" x="141.489474" y="143.952632" style="stroke: #000000; stroke-width: 0.3"/>
    </g>
    <g clip-path="url(#p8435be1992)">
     <use xlink:href="#C3_0_1e0a3ae92e" x="145.421053" y="155.7" style="stroke: #000000; stroke-width: 0.3"/>
    </g>
    <g clip-path="url(#p8435be1992)">
     <use xlink:href="#C3_0_1e0a3ae92e" x="141.489474" y="167.4" style="stroke: #000000; stroke-width: 0.3"/>
    </g>
    <g clip-path="url(#p8435be1992)">
     <use xlink:href="#C3_0_1e0a3ae92e" x="133.105263" y="191.842105" style="stroke: #000000; stroke-width: 0.3"/>
    </g>
    <g clip-path="url(#p8435be1992)">
     <use xlink:href="#C3_0_1e0a3ae92e" x="133.105263" y="218.321053" style="fill: #ffffff; stroke: #ffffff; stroke-width: 0.3"/>
    </g>
    <g clip-path="url(#p8435be1992)">
     <use xlink:href="#C3_0_1e0a3ae92e" x="133.105263" y="226.657895" style="fill: #ffffff; stroke: #ffffff; stroke-width: 0.3"/>
    </g>
    <g clip-path="url(#p8435be1992)">
     <use xlink:href="#C3_0_1e0a3ae92e" x="141.489474" y="226.657895" style="fill: #ffffff; stroke: #ffffff; stroke-width: 0.3"/>
    </g>
    <g clip-path="url(#p8435be1992)">
     <use xlink:href="#C3_0_1e0a3ae92e" x="149.826316" y="226.657895" style="stroke: #000000; stroke-width: 0.3"/>
    </g>
    <g clip-path="url(#p8435be1992)">
     <use xlink:href="#C3_0_1e0a3ae92e" x="158.210526" y="226.657895" style="stroke: #000000; stroke-width: 0.3"/>
    </g>
   </g>
   <g id="PathCollection_6">
    <defs>
     <path id="C4_0_3881251471" d="M 1.277215 -1.22485 
L 1.277215 -0.812745 
Q 1.079529 -0.996798 0.855815 -1.087275 
Q 0.632101 -1.178372 0.3805 -1.178372 
Q -0.115265 -1.178372 -0.378641 -0.875336 
Q -0.642016 -0.572299 -0.642016 0.00093 
Q -0.642016 0.572299 -0.378641 0.875336 
Q -0.115265 1.178372 0.3805 1.178372 
Q 0.632101 1.178372 0.855815 1.087275 
Q 1.079529 0.996178 1.277215 0.812126 
L 1.277215 1.221132 
Q 1.072093 1.360566 0.842181 1.430593 
Q 0.61289 1.5 0.357571 1.5 
Q -0.299318 1.5 -0.677339 1.09843 
Q -1.054741 0.69624 -1.054741 0.00093 
Q -1.054741 -0.69624 -0.677339 -1.09781 
Q -0.299318 -1.5 0.357571 -1.5 
Q 0.616608 -1.5 0.8459 -1.431213 
Q 1.075811 -1.362425 1.277215 -1.22485 
z
"/>
    </defs>
    <g clip-path="url(#p8435be1992)">
     <use xlink:href="#C4_0_3881251471" x="94.073684" y="168.347368" style="stroke: #000000; stroke-width: 0.3"/>
    </g>
    <g clip-path="url(#p8435be1992)">
     <use xlink:href="#C4_0_3881251471" x="78.963158" y="174.031579" style="stroke: #000000; stroke-width: 0.3"/>
    </g>
    <g clip-path="url(#p8435be1992)">
     <use xlink:href="#C4_0_3881251471" x="80.526316" y="229.215789" style="stroke: #000000; stroke-width: 0.3"/>
    </g>
    <g clip-path="url(#p8435be1992)">
     <use xlink:href="#C4_0_3881251471" x="118.705263" y="175.168421" style="stroke: #000000; stroke-width: 0.3"/>
    </g>
    <g clip-path="url(#p8435be1992)">
     <use xlink:href="#C4_0_3881251471" x="107.005263" y="160.247368" style="stroke: #000000; stroke-width: 0.3"/>
    </g>
    <g clip-path="url(#p8435be1992)">
     <use xlink:href="#C4_0_3881251471" x="107.005263" y="151.152632" style="stroke: #000000; stroke-width: 0.3"/>
    </g>
    <g clip-path="url(#p8435be1992)">
     <use xlink:href="#C4_0_3881251471" x="112.547368" y="120.884211" style="stroke: #000000; stroke-width: 0.3"/>
    </g>
    <g clip-path="url(#p8435be1992)">
     <use xlink:href="#C4_0_3881251471" x="133.105263" y="127.894737" style="stroke: #000000; stroke-width: 0.3"/>
    </g>
    <g clip-path="url(#p8435be1992)">
     <use xlink:href="#C4_0_3881251471" x="133.105263" y="200.178947" style="stroke: #000000; stroke-width: 0.3"/>
    </g>
   </g>
   <g id="PathCollection_7"/>
   <g id="PathCollection_8"/>
   <g id="PathCollection_9"/>
   <g id="PathCollection_10"/>
   <g id="PathCollection_11"/>
  </g>
 </g>
 <defs>
  <clipPath id="p8435be1992">
   <rect x="36" y="72" width="151.010526" height="190.894737"/>
  </clipPath>
 </defs>
</svg>
