<?xml version="1.0" encoding="utf-8" standalone="no"?>
<!DOCTYPE svg PUBLIC "-//W3C//DTD SVG 1.1//EN"
  "http://www.w3.org/Graphics/SVG/1.1/DTD/svg11.dtd">
<svg xmlns:xlink="http://www.w3.org/1999/xlink" width="172.8pt" height="461.652632pt" viewBox="0 0 172.8 461.652632" xmlns="http://www.w3.org/2000/svg" version="1.1">
 <metadata>
  <rdf:RDF xmlns:dc="http://purl.org/dc/elements/1.1/" xmlns:cc="http://creativecommons.org/ns#" xmlns:rdf="http://www.w3.org/1999/02/22-rdf-syntax-ns#">
   <cc:Work>
    <dc:type rdf:resource="http://purl.org/dc/dcmitype/StillImage"/>
    <dc:date>2024-03-15T02:12:23.805641</dc:date>
    <dc:format>image/svg+xml</dc:format>
    <dc:creator>
     <cc:Agent>
      <dc:title>Matplotlib v3.7.0, https://matplotlib.org/</dc:title>
     </cc:Agent>
    </dc:creator>
   </cc:Work>
  </rdf:RDF>
 </metadata>
 <defs>
  <style type="text/css">*{stroke-linejoin: round; stroke-linecap: butt}</style>
 </defs>
 <g id="figure_1">
  <g id="patch_1">
   <path d="M 0 461.652632 
L 172.8 461.652632 
L 172.8 0 
L 0 0 
z
" style="fill: #ffffff"/>
  </g>
  <g id="axes_1">
   <g id="line2d_1">
    <path d="M 84 396.852632 
L 88.8 396.852632 
" clip-path="url(#pf67155c8c2)" style="fill: none; stroke: #808080; stroke-width: 1.2; stroke-linecap: round"/>
   </g>
   <g id="line2d_2">
    <path d="M 84 388.515789 
L 88.8 388.515789 
" clip-path="url(#pf67155c8c2)" style="fill: none; stroke: #808080; stroke-width: 1.2; stroke-linecap: round"/>
   </g>
   <g id="line2d_3">
    <path d="M 84 380.178947 
L 88.8 380.178947 
" clip-path="url(#pf67155c8c2)" style="fill: none; stroke: #808080; stroke-width: 1.2; stroke-linecap: round"/>
   </g>
   <g id="line2d_4">
    <path d="M 84 371.842105 
L 88.8 371.842105 
" clip-path="url(#pf67155c8c2)" style="fill: none; stroke: #808080; stroke-width: 1.2; stroke-linecap: round"/>
   </g>
   <g id="line2d_5">
    <path d="M 84 363.505263 
L 88.8 363.505263 
" clip-path="url(#pf67155c8c2)" style="fill: none; stroke: #808080; stroke-width: 1.2; stroke-linecap: round"/>
   </g>
   <g id="line2d_6">
    <path d="M 84 355.168421 
L 88.8 355.168421 
" clip-path="url(#pf67155c8c2)" style="fill: none; stroke: #808080; stroke-width: 1.2; stroke-linecap: round"/>
   </g>
   <g id="line2d_7">
    <path d="M 84 346.831579 
L 88.8 346.831579 
" clip-path="url(#pf67155c8c2)" style="fill: none; stroke: #808080; stroke-width: 1.2; stroke-linecap: round"/>
   </g>
   <g id="line2d_8">
    <path d="M 84 338.494737 
L 88.8 338.494737 
" clip-path="url(#pf67155c8c2)" style="fill: none; stroke: #808080; stroke-width: 1.2; stroke-linecap: round"/>
   </g>
   <g id="line2d_9">
    <path d="M 84 330.157895 
L 88.8 330.157895 
" clip-path="url(#pf67155c8c2)" style="fill: none; stroke: #808080; stroke-width: 1.2; stroke-linecap: round"/>
   </g>
   <g id="line2d_10">
    <path d="M 84 321.821053 
L 88.8 321.821053 
" clip-path="url(#pf67155c8c2)" style="fill: none; stroke: #808080; stroke-width: 1.2; stroke-linecap: round"/>
   </g>
   <g id="line2d_11">
    <path d="M 84 313.484211 
L 88.8 313.484211 
" clip-path="url(#pf67155c8c2)" style="fill: none; stroke: #808080; stroke-width: 1.2; stroke-linecap: round"/>
   </g>
   <g id="line2d_12">
    <path d="M 84 284.589474 
L 88.8 284.589474 
" clip-path="url(#pf67155c8c2)" style="fill: none; stroke: #808080; stroke-width: 1.2; stroke-linecap: round"/>
   </g>
   <g id="line2d_13">
    <path d="M 84 276.252632 
L 88.8 276.252632 
" clip-path="url(#pf67155c8c2)" style="fill: none; stroke: #808080; stroke-width: 1.2; stroke-linecap: round"/>
   </g>
   <g id="line2d_14">
    <path d="M 84 247.452632 
L 88.8 247.452632 
" clip-path="url(#pf67155c8c2)" style="fill: none; stroke: #808080; stroke-width: 1.2; stroke-linecap: round"/>
   </g>
   <g id="line2d_15">
    <path d="M 84 239.115789 
L 88.8 239.115789 
" clip-path="url(#pf67155c8c2)" style="fill: none; stroke: #808080; stroke-width: 1.2; stroke-linecap: round"/>
   </g>
   <g id="line2d_16">
    <path d="M 84 230.778947 
L 88.8 230.778947 
" clip-path="url(#pf67155c8c2)" style="fill: none; stroke: #808080; stroke-width: 1.2; stroke-linecap: round"/>
   </g>
   <g id="line2d_17">
    <path d="M 84 202.642105 
L 88.8 202.642105 
" clip-path="url(#pf67155c8c2)" style="fill: none; stroke: #808080; stroke-width: 1.2; stroke-linecap: round"/>
   </g>
   <g id="line2d_18">
    <path d="M 84 194.305263 
L 88.8 194.305263 
" clip-path="url(#pf67155c8c2)" style="fill: none; stroke: #808080; stroke-width: 1.2; stroke-linecap: round"/>
   </g>
   <g id="line2d_19">
    <path d="M 84 185.968421 
L 88.8 185.968421 
" clip-path="url(#pf67155c8c2)" style="fill: none; stroke: #808080; stroke-width: 1.2; stroke-linecap: round"/>
   </g>
   <g id="line2d_20">
    <path d="M 84 177.631579 
L 88.8 177.631579 
" clip-path="url(#pf67155c8c2)" style="fill: none; stroke: #808080; stroke-width: 1.2; stroke-linecap: round"/>
   </g>
   <g id="line2d_21">
    <path d="M 84 159.489474 
L 88.8 159.489474 
" clip-path="url(#pf67155c8c2)" style="fill: none; stroke: #808080; stroke-width: 1.2; stroke-linecap: round"/>
   </g>
   <g id="line2d_22">
    <path d="M 84 151.152632 
L 88.8 151.152632 
" clip-path="url(#pf67155c8c2)" style="fill: none; stroke: #808080; stroke-width: 1.2; stroke-linecap: round"/>
   </g>
   <g id="line2d_23">
    <path d="M 84 142.815789 
L 88.8 142.815789 
" clip-path="url(#pf67155c8c2)" style="fill: none; stroke: #808080; stroke-width: 1.2; stroke-linecap: round"/>
   </g>
   <g id="LineCollection_1">
    <path d="M 79.2 396.852632 
L 79.2 230.778947 
L 73.373684 222.063158 
L 73.373684 211.357895 
L 79.2 202.642105 
L 79.2 142.815789 
L 71.810526 138.410526 
L 66.742105 131.447368 
L 64.8 123.063158 
L 66.221053 114.584211 
L 70.863158 107.336842 
L 77.968421 102.505263 
L 86.4 100.8 
L 94.831579 102.505263 
L 101.936842 107.336842 
L 106.578947 114.584211 
L 108 123.063158 
L 106.057895 131.447368 
L 100.989474 138.410526 
L 93.6 142.815789 
L 93.6 159.489474 
L 95.447368 168.536842 
L 93.6 177.631579 
L 93.6 247.452632 
L 99.710526 256.405263 
L 99.710526 267.3 
L 93.6 276.252632 
L 93.6 284.589474 
L 99.615789 293.257895 
L 99.615789 304.768421 
L 93.6 313.484211 
L 93.6 396.852632 
L 93.6 396.852632 
" clip-path="url(#pf67155c8c2)" style="fill: none; stroke: #808080"/>
   </g>
   <g id="text_1">
    <text style="fill: #262626; font: 9.6px 'Arial', 'DejaVu Sans', 'Liberation Sans', 'Bitstream Vera Sans', sans-serif; text-anchor: middle" x="86.4" y="66" transform="rotate(-0 86.4 66)">6mci_state6</text>
   </g>
   <g id="PathCollection_1">
    <defs>
     <path id="C0_0_655f244756" d="M 0 2.5 
C 0.663008 2.5 1.29895 2.236584 1.767767 1.767767 
C 2.236584 1.29895 2.5 0.663008 2.5 -0 
C 2.5 -0.663008 2.236584 -1.29895 1.767767 -1.767767 
C 1.29895 -2.236584 0.663008 -2.5 0 -2.5 
C -0.663008 -2.5 -1.29895 -2.236584 -1.767767 -1.767767 
C -2.236584 -1.29895 -2.5 -0.663008 -2.5 0 
C -2.5 0.663008 -2.236584 1.29895 -1.767767 1.767767 
C -1.29895 2.236584 -0.663008 2.5 0 2.5 
z
"/>
    </defs>
    <g clip-path="url(#pf67155c8c2)">
     <use xlink:href="#C0_0_655f244756" x="79.2" y="396.852632" style="fill: #ffffff"/>
    </g>
    <g clip-path="url(#pf67155c8c2)">
     <use xlink:href="#C0_0_655f244756" x="79.2" y="388.515789" style="fill: #ffffff"/>
    </g>
    <g clip-path="url(#pf67155c8c2)">
     <use xlink:href="#C0_0_655f244756" x="79.2" y="380.178947" style="fill: #ffffff"/>
    </g>
    <g clip-path="url(#pf67155c8c2)">
     <use xlink:href="#C0_0_655f244756" x="79.2" y="371.842105" style="fill: #1c6f2e"/>
    </g>
    <g clip-path="url(#pf67155c8c2)">
     <use xlink:href="#C0_0_655f244756" x="79.2" y="363.505263" style="fill: #1c6f2e"/>
    </g>
    <g clip-path="url(#pf67155c8c2)">
     <use xlink:href="#C0_0_655f244756" x="79.2" y="355.168421" style="fill: #ffffff"/>
    </g>
    <g clip-path="url(#pf67155c8c2)">
     <use xlink:href="#C0_0_655f244756" x="79.2" y="346.831579" style="fill: #ffffff"/>
    </g>
    <g clip-path="url(#pf67155c8c2)">
     <use xlink:href="#C0_0_655f244756" x="79.2" y="338.494737" style="fill: #ffffff"/>
    </g>
    <g clip-path="url(#pf67155c8c2)">
     <use xlink:href="#C0_0_655f244756" x="79.2" y="330.157895" style="fill: #ffffff"/>
    </g>
    <g clip-path="url(#pf67155c8c2)">
     <use xlink:href="#C0_0_655f244756" x="79.2" y="321.821053" style="fill: #ffffff"/>
    </g>
    <g clip-path="url(#pf67155c8c2)">
     <use xlink:href="#C0_0_655f244756" x="79.2" y="313.484211" style="fill: #ffffff"/>
    </g>
    <g clip-path="url(#pf67155c8c2)">
     <use xlink:href="#C0_0_655f244756" x="79.2" y="284.589474" style="fill: #ffffff"/>
    </g>
    <g clip-path="url(#pf67155c8c2)">
     <use xlink:href="#C0_0_655f244756" x="79.2" y="276.252632" style="fill: #ffffff"/>
    </g>
    <g clip-path="url(#pf67155c8c2)">
     <use xlink:href="#C0_0_655f244756" x="79.2" y="247.452632" style="fill: #ffffff"/>
    </g>
    <g clip-path="url(#pf67155c8c2)">
     <use xlink:href="#C0_0_655f244756" x="79.2" y="239.115789" style="fill: #ffffff"/>
    </g>
    <g clip-path="url(#pf67155c8c2)">
     <use xlink:href="#C0_0_655f244756" x="79.2" y="230.778947" style="fill: #ffffff"/>
    </g>
    <g clip-path="url(#pf67155c8c2)">
     <use xlink:href="#C0_0_655f244756" x="73.373684" y="222.063158" style="fill: #ffffff"/>
    </g>
    <g clip-path="url(#pf67155c8c2)">
     <use xlink:href="#C0_0_655f244756" x="73.373684" y="211.357895" style="fill: #ffffff"/>
    </g>
    <g clip-path="url(#pf67155c8c2)">
     <use xlink:href="#C0_0_655f244756" x="79.2" y="202.642105" style="fill: #ffffff"/>
    </g>
    <g clip-path="url(#pf67155c8c2)">
     <use xlink:href="#C0_0_655f244756" x="79.2" y="194.305263" style="fill: #ffffff"/>
    </g>
    <g clip-path="url(#pf67155c8c2)">
     <use xlink:href="#C0_0_655f244756" x="79.2" y="185.968421" style="fill: #ffffff"/>
    </g>
    <g clip-path="url(#pf67155c8c2)">
     <use xlink:href="#C0_0_655f244756" x="79.2" y="177.631579" style="fill: #ffffff"/>
    </g>
    <g clip-path="url(#pf67155c8c2)">
     <use xlink:href="#C0_0_655f244756" x="79.2" y="159.489474" style="fill: #ffffff"/>
    </g>
    <g clip-path="url(#pf67155c8c2)">
     <use xlink:href="#C0_0_655f244756" x="79.2" y="151.152632" style="fill: #ffffff"/>
    </g>
    <g clip-path="url(#pf67155c8c2)">
     <use xlink:href="#C0_0_655f244756" x="79.2" y="142.815789" style="fill: #ffffff"/>
    </g>
    <g clip-path="url(#pf67155c8c2)">
     <use xlink:href="#C0_0_655f244756" x="71.810526" y="138.410526" style="fill: #ffffff"/>
    </g>
    <g clip-path="url(#pf67155c8c2)">
     <use xlink:href="#C0_0_655f244756" x="66.742105" y="131.447368" style="fill: #ffffff"/>
    </g>
    <g clip-path="url(#pf67155c8c2)">
     <use xlink:href="#C0_0_655f244756" x="64.8" y="123.063158" style="fill: #ffffff"/>
    </g>
    <g clip-path="url(#pf67155c8c2)">
     <use xlink:href="#C0_0_655f244756" x="66.221053" y="114.584211" style="fill: #ffffff"/>
    </g>
    <g clip-path="url(#pf67155c8c2)">
     <use xlink:href="#C0_0_655f244756" x="70.863158" y="107.336842" style="fill: #ffffff"/>
    </g>
    <g clip-path="url(#pf67155c8c2)">
     <use xlink:href="#C0_0_655f244756" x="77.968421" y="102.505263" style="fill: #ffffff"/>
    </g>
    <g clip-path="url(#pf67155c8c2)">
     <use xlink:href="#C0_0_655f244756" x="86.4" y="100.8" style="fill: #ffffff"/>
    </g>
    <g clip-path="url(#pf67155c8c2)">
     <use xlink:href="#C0_0_655f244756" x="94.831579" y="102.505263" style="fill: #ffffff"/>
    </g>
    <g clip-path="url(#pf67155c8c2)">
     <use xlink:href="#C0_0_655f244756" x="101.936842" y="107.336842" style="fill: #ffffff"/>
    </g>
    <g clip-path="url(#pf67155c8c2)">
     <use xlink:href="#C0_0_655f244756" x="106.578947" y="114.584211" style="fill: #ffffff"/>
    </g>
    <g clip-path="url(#pf67155c8c2)">
     <use xlink:href="#C0_0_655f244756" x="108" y="123.063158" style="fill: #ffffff"/>
    </g>
    <g clip-path="url(#pf67155c8c2)">
     <use xlink:href="#C0_0_655f244756" x="106.057895" y="131.447368" style="fill: #ffffff"/>
    </g>
    <g clip-path="url(#pf67155c8c2)">
     <use xlink:href="#C0_0_655f244756" x="100.989474" y="138.410526" style="fill: #ffffff"/>
    </g>
    <g clip-path="url(#pf67155c8c2)">
     <use xlink:href="#C0_0_655f244756" x="93.6" y="142.815789" style="fill: #ffffff"/>
    </g>
    <g clip-path="url(#pf67155c8c2)">
     <use xlink:href="#C0_0_655f244756" x="93.6" y="151.152632" style="fill: #ffffff"/>
    </g>
    <g clip-path="url(#pf67155c8c2)">
     <use xlink:href="#C0_0_655f244756" x="93.6" y="159.489474" style="fill: #ffffff"/>
    </g>
    <g clip-path="url(#pf67155c8c2)">
     <use xlink:href="#C0_0_655f244756" x="95.447368" y="168.536842" style="fill: #ffffff"/>
    </g>
    <g clip-path="url(#pf67155c8c2)">
     <use xlink:href="#C0_0_655f244756" x="93.6" y="177.631579" style="fill: #ffffff"/>
    </g>
    <g clip-path="url(#pf67155c8c2)">
     <use xlink:href="#C0_0_655f244756" x="93.6" y="185.968421" style="fill: #ffffff"/>
    </g>
    <g clip-path="url(#pf67155c8c2)">
     <use xlink:href="#C0_0_655f244756" x="93.6" y="194.305263" style="fill: #ffffff"/>
    </g>
    <g clip-path="url(#pf67155c8c2)">
     <use xlink:href="#C0_0_655f244756" x="93.6" y="202.642105" style="fill: #ffffff"/>
    </g>
    <g clip-path="url(#pf67155c8c2)">
     <use xlink:href="#C0_0_655f244756" x="93.6" y="230.778947" style="fill: #ffffff"/>
    </g>
    <g clip-path="url(#pf67155c8c2)">
     <use xlink:href="#C0_0_655f244756" x="93.6" y="239.115789" style="fill: #1c6f2e"/>
    </g>
    <g clip-path="url(#pf67155c8c2)">
     <use xlink:href="#C0_0_655f244756" x="93.6" y="247.452632" style="fill: #ffffff"/>
    </g>
    <g clip-path="url(#pf67155c8c2)">
     <use xlink:href="#C0_0_655f244756" x="99.710526" y="256.405263" style="fill: #ffffff"/>
    </g>
    <g clip-path="url(#pf67155c8c2)">
     <use xlink:href="#C0_0_655f244756" x="99.710526" y="267.3" style="fill: #1c6f2e"/>
    </g>
    <g clip-path="url(#pf67155c8c2)">
     <use xlink:href="#C0_0_655f244756" x="93.6" y="276.252632" style="fill: #1c6f2e"/>
    </g>
    <g clip-path="url(#pf67155c8c2)">
     <use xlink:href="#C0_0_655f244756" x="93.6" y="284.589474" style="fill: #1c6f2e"/>
    </g>
    <g clip-path="url(#pf67155c8c2)">
     <use xlink:href="#C0_0_655f244756" x="99.615789" y="293.257895" style="fill: #1c6f2e"/>
    </g>
    <g clip-path="url(#pf67155c8c2)">
     <use xlink:href="#C0_0_655f244756" x="99.615789" y="304.768421" style="fill: #ffffff"/>
    </g>
    <g clip-path="url(#pf67155c8c2)">
     <use xlink:href="#C0_0_655f244756" x="93.6" y="313.484211" style="fill: #ffffff"/>
    </g>
    <g clip-path="url(#pf67155c8c2)">
     <use xlink:href="#C0_0_655f244756" x="93.6" y="321.821053" style="fill: #ffffff"/>
    </g>
    <g clip-path="url(#pf67155c8c2)">
     <use xlink:href="#C0_0_655f244756" x="93.6" y="330.157895" style="fill: #ffffff"/>
    </g>
    <g clip-path="url(#pf67155c8c2)">
     <use xlink:href="#C0_0_655f244756" x="93.6" y="338.494737" style="fill: #ffffff"/>
    </g>
    <g clip-path="url(#pf67155c8c2)">
     <use xlink:href="#C0_0_655f244756" x="93.6" y="346.831579" style="fill: #ffffff"/>
    </g>
    <g clip-path="url(#pf67155c8c2)">
     <use xlink:href="#C0_0_655f244756" x="93.6" y="355.168421" style="fill: #ffffff"/>
    </g>
    <g clip-path="url(#pf67155c8c2)">
     <use xlink:href="#C0_0_655f244756" x="93.6" y="363.505263" style="fill: #ffffff"/>
    </g>
    <g clip-path="url(#pf67155c8c2)">
     <use xlink:href="#C0_0_655f244756" x="93.6" y="371.842105" style="fill: #ffffff"/>
    </g>
    <g clip-path="url(#pf67155c8c2)">
     <use xlink:href="#C0_0_655f244756" x="93.6" y="380.178947" style="fill: #ffffff"/>
    </g>
    <g clip-path="url(#pf67155c8c2)">
     <use xlink:href="#C0_0_655f244756" x="93.6" y="388.515789" style="fill: #ffffff"/>
    </g>
    <g clip-path="url(#pf67155c8c2)">
     <use xlink:href="#C0_0_655f244756" x="93.6" y="396.852632" style="fill: #ffffff"/>
    </g>
   </g>
   <g id="PathCollection_2">
    <defs>
     <path id="C1_0_c7bfbf8868" d="M 0.986573 1.030882 
L 0.986573 0.25439 
L 0.347655 0.25439 
L 0.347655 -0.067238 
L 1.37389 -0.067238 
L 1.37389 1.174654 
Q 1.147697 1.335158 0.874406 1.417579 
Q 0.601735 1.5 0.291882 1.5 
Q -0.386077 1.5 -0.769056 1.104007 
Q -1.151415 0.707395 -1.151415 0.00093 
Q -1.151415 -0.708015 -0.769056 -1.104007 
Q -0.386077 -1.5 0.291882 -1.5 
Q 0.574468 -1.5 0.829168 -1.429973 
Q 1.083867 -1.360566 1.298905 -1.22485 
L 1.298905 -0.808407 
Q 1.082008 -0.99246 0.837843 -1.085416 
Q 0.593679 -1.178372 0.324726 -1.178372 
Q -0.206362 -1.178372 -0.472836 -0.882152 
Q -0.73869 -0.585933 -0.73869 0.00093 
Q -0.73869 0.585933 -0.472836 0.882152 
Q -0.206362 1.178372 0.324726 1.178372 
Q 0.531708 1.178372 0.694071 1.142429 
Q 0.857054 1.106486 0.986573 1.030882 
z
"/>
    </defs>
    <g clip-path="url(#pf67155c8c2)">
     <use xlink:href="#C1_0_c7bfbf8868" x="79.2" y="388.515789" style="stroke: #000000; stroke-width: 0.3"/>
    </g>
    <g clip-path="url(#pf67155c8c2)">
     <use xlink:href="#C1_0_c7bfbf8868" x="79.2" y="380.178947" style="stroke: #000000; stroke-width: 0.3"/>
    </g>
    <g clip-path="url(#pf67155c8c2)">
     <use xlink:href="#C1_0_c7bfbf8868" x="79.2" y="338.494737" style="stroke: #000000; stroke-width: 0.3"/>
    </g>
    <g clip-path="url(#pf67155c8c2)">
     <use xlink:href="#C1_0_c7bfbf8868" x="79.2" y="202.642105" style="stroke: #000000; stroke-width: 0.3"/>
    </g>
    <g clip-path="url(#pf67155c8c2)">
     <use xlink:href="#C1_0_c7bfbf8868" x="79.2" y="159.489474" style="stroke: #000000; stroke-width: 0.3"/>
    </g>
    <g clip-path="url(#pf67155c8c2)">
     <use xlink:href="#C1_0_c7bfbf8868" x="71.810526" y="138.410526" style="stroke: #000000; stroke-width: 0.3"/>
    </g>
    <g clip-path="url(#pf67155c8c2)">
     <use xlink:href="#C1_0_c7bfbf8868" x="64.8" y="123.063158" style="stroke: #000000; stroke-width: 0.3"/>
    </g>
    <g clip-path="url(#pf67155c8c2)">
     <use xlink:href="#C1_0_c7bfbf8868" x="93.6" y="142.815789" style="stroke: #000000; stroke-width: 0.3"/>
    </g>
    <g clip-path="url(#pf67155c8c2)">
     <use xlink:href="#C1_0_c7bfbf8868" x="93.6" y="151.152632" style="stroke: #000000; stroke-width: 0.3"/>
    </g>
    <g clip-path="url(#pf67155c8c2)">
     <use xlink:href="#C1_0_c7bfbf8868" x="93.6" y="177.631579" style="stroke: #000000; stroke-width: 0.3"/>
    </g>
    <g clip-path="url(#pf67155c8c2)">
     <use xlink:href="#C1_0_c7bfbf8868" x="93.6" y="239.115789" style="fill: #ffffff; stroke: #ffffff; stroke-width: 0.3"/>
    </g>
    <g clip-path="url(#pf67155c8c2)">
     <use xlink:href="#C1_0_c7bfbf8868" x="93.6" y="247.452632" style="stroke: #000000; stroke-width: 0.3"/>
    </g>
    <g clip-path="url(#pf67155c8c2)">
     <use xlink:href="#C1_0_c7bfbf8868" x="93.6" y="276.252632" style="fill: #ffffff; stroke: #ffffff; stroke-width: 0.3"/>
    </g>
    <g clip-path="url(#pf67155c8c2)">
     <use xlink:href="#C1_0_c7bfbf8868" x="93.6" y="284.589474" style="fill: #ffffff; stroke: #ffffff; stroke-width: 0.3"/>
    </g>
    <g clip-path="url(#pf67155c8c2)">
     <use xlink:href="#C1_0_c7bfbf8868" x="93.6" y="321.821053" style="stroke: #000000; stroke-width: 0.3"/>
    </g>
    <g clip-path="url(#pf67155c8c2)">
     <use xlink:href="#C1_0_c7bfbf8868" x="93.6" y="330.157895" style="stroke: #000000; stroke-width: 0.3"/>
    </g>
    <g clip-path="url(#pf67155c8c2)">
     <use xlink:href="#C1_0_c7bfbf8868" x="93.6" y="346.831579" style="stroke: #000000; stroke-width: 0.3"/>
    </g>
    <g clip-path="url(#pf67155c8c2)">
     <use xlink:href="#C1_0_c7bfbf8868" x="93.6" y="355.168421" style="stroke: #000000; stroke-width: 0.3"/>
    </g>
    <g clip-path="url(#pf67155c8c2)">
     <use xlink:href="#C1_0_c7bfbf8868" x="93.6" y="363.505263" style="stroke: #000000; stroke-width: 0.3"/>
    </g>
   </g>
   <g id="PathCollection_3">
    <defs>
     <path id="C2_0_fec2c5d92e" d="M -0.95102 -1.5 
L -0.550557 -1.5 
L -0.550557 0.287892 
Q -0.550557 0.760879 -0.379651 0.968993 
Q -0.208114 1.176477 0.176582 1.176477 
Q 0.558756 1.176477 0.730292 0.968993 
Q 0.901829 0.760879 0.901829 0.287892 
L 0.901829 -1.5 
L 1.301661 -1.5 
L 1.301661 0.337082 
Q 1.301661 0.912235 1.016607 1.206117 
Q 0.732184 1.5 0.176582 1.5 
Q -0.381543 1.5 -0.666597 1.206117 
Q -0.95102 0.912235 -0.95102 0.337082 
L -0.95102 -1.5 
z
"/>
    </defs>
    <g clip-path="url(#pf67155c8c2)">
     <use xlink:href="#C2_0_fec2c5d92e" x="79.2" y="363.505263" style="fill: #ffffff; stroke: #ffffff; stroke-width: 0.3"/>
    </g>
    <g clip-path="url(#pf67155c8c2)">
     <use xlink:href="#C2_0_fec2c5d92e" x="79.2" y="346.831579" style="stroke: #000000; stroke-width: 0.3"/>
    </g>
    <g clip-path="url(#pf67155c8c2)">
     <use xlink:href="#C2_0_fec2c5d92e" x="79.2" y="330.157895" style="stroke: #000000; stroke-width: 0.3"/>
    </g>
    <g clip-path="url(#pf67155c8c2)">
     <use xlink:href="#C2_0_fec2c5d92e" x="73.373684" y="222.063158" style="stroke: #000000; stroke-width: 0.3"/>
    </g>
    <g clip-path="url(#pf67155c8c2)">
     <use xlink:href="#C2_0_fec2c5d92e" x="73.373684" y="211.357895" style="stroke: #000000; stroke-width: 0.3"/>
    </g>
    <g clip-path="url(#pf67155c8c2)">
     <use xlink:href="#C2_0_fec2c5d92e" x="79.2" y="185.968421" style="stroke: #000000; stroke-width: 0.3"/>
    </g>
    <g clip-path="url(#pf67155c8c2)">
     <use xlink:href="#C2_0_fec2c5d92e" x="95.447368" y="168.536842" style="stroke: #000000; stroke-width: 0.3"/>
    </g>
    <g clip-path="url(#pf67155c8c2)">
     <use xlink:href="#C2_0_fec2c5d92e" x="93.6" y="194.305263" style="stroke: #000000; stroke-width: 0.3"/>
    </g>
    <g clip-path="url(#pf67155c8c2)">
     <use xlink:href="#C2_0_fec2c5d92e" x="93.6" y="230.778947" style="stroke: #000000; stroke-width: 0.3"/>
    </g>
    <g clip-path="url(#pf67155c8c2)">
     <use xlink:href="#C2_0_fec2c5d92e" x="99.710526" y="267.3" style="fill: #ffffff; stroke: #ffffff; stroke-width: 0.3"/>
    </g>
    <g clip-path="url(#pf67155c8c2)">
     <use xlink:href="#C2_0_fec2c5d92e" x="99.615789" y="304.768421" style="stroke: #000000; stroke-width: 0.3"/>
    </g>
    <g clip-path="url(#pf67155c8c2)">
     <use xlink:href="#C2_0_fec2c5d92e" x="93.6" y="371.842105" style="stroke: #000000; stroke-width: 0.3"/>
    </g>
   </g>
   <g id="PathCollection_4"/>
   <g id="PathCollection_5">
    <defs>
     <path id="C3_0_10a1d410a6" d="M 0.016395 -1.100086 
L -0.534612 0.392842 
L 0.568688 0.392842 
L 0.016395 -1.100086 
z
M -0.213138 -1.5 
L 0.247214 -1.5 
L 1.390377 1.5 
L 0.968603 1.5 
L 0.695349 0.73039 
L -0.656772 0.73039 
L -0.930026 1.5 
L -1.35823 1.5 
L -0.213138 -1.5 
z
"/>
    </defs>
    <g clip-path="url(#pf67155c8c2)">
     <use xlink:href="#C3_0_10a1d410a6" x="79.2" y="371.842105" style="fill: #ffffff; stroke: #ffffff; stroke-width: 0.3"/>
    </g>
    <g clip-path="url(#pf67155c8c2)">
     <use xlink:href="#C3_0_10a1d410a6" x="79.2" y="313.484211" style="stroke: #000000; stroke-width: 0.3"/>
    </g>
    <g clip-path="url(#pf67155c8c2)">
     <use xlink:href="#C3_0_10a1d410a6" x="79.2" y="230.778947" style="stroke: #000000; stroke-width: 0.3"/>
    </g>
    <g clip-path="url(#pf67155c8c2)">
     <use xlink:href="#C3_0_10a1d410a6" x="79.2" y="194.305263" style="stroke: #000000; stroke-width: 0.3"/>
    </g>
    <g clip-path="url(#pf67155c8c2)">
     <use xlink:href="#C3_0_10a1d410a6" x="66.742105" y="131.447368" style="stroke: #000000; stroke-width: 0.3"/>
    </g>
    <g clip-path="url(#pf67155c8c2)">
     <use xlink:href="#C3_0_10a1d410a6" x="66.221053" y="114.584211" style="stroke: #000000; stroke-width: 0.3"/>
    </g>
    <g clip-path="url(#pf67155c8c2)">
     <use xlink:href="#C3_0_10a1d410a6" x="93.6" y="185.968421" style="stroke: #000000; stroke-width: 0.3"/>
    </g>
    <g clip-path="url(#pf67155c8c2)">
     <use xlink:href="#C3_0_10a1d410a6" x="93.6" y="313.484211" style="stroke: #000000; stroke-width: 0.3"/>
    </g>
   </g>
   <g id="PathCollection_6">
    <defs>
     <path id="C4_0_b6f331b463" d="M 1.277215 -1.22485 
L 1.277215 -0.812745 
Q 1.079529 -0.996798 0.855815 -1.087275 
Q 0.632101 -1.178372 0.3805 -1.178372 
Q -0.115265 -1.178372 -0.378641 -0.875336 
Q -0.642016 -0.572299 -0.642016 0.00093 
Q -0.642016 0.572299 -0.378641 0.875336 
Q -0.115265 1.178372 0.3805 1.178372 
Q 0.632101 1.178372 0.855815 1.087275 
Q 1.079529 0.996178 1.277215 0.812126 
L 1.277215 1.221132 
Q 1.072093 1.360566 0.842181 1.430593 
Q 0.61289 1.5 0.357571 1.5 
Q -0.299318 1.5 -0.677339 1.09843 
Q -1.054741 0.69624 -1.054741 0.00093 
Q -1.054741 -0.69624 -0.677339 -1.09781 
Q -0.299318 -1.5 0.357571 -1.5 
Q 0.616608 -1.5 0.8459 -1.431213 
Q 1.075811 -1.362425 1.277215 -1.22485 
z
"/>
    </defs>
    <g clip-path="url(#pf67155c8c2)">
     <use xlink:href="#C4_0_b6f331b463" x="79.2" y="355.168421" style="stroke: #000000; stroke-width: 0.3"/>
    </g>
    <g clip-path="url(#pf67155c8c2)">
     <use xlink:href="#C4_0_b6f331b463" x="79.2" y="321.821053" style="stroke: #000000; stroke-width: 0.3"/>
    </g>
    <g clip-path="url(#pf67155c8c2)">
     <use xlink:href="#C4_0_b6f331b463" x="79.2" y="284.589474" style="stroke: #000000; stroke-width: 0.3"/>
    </g>
    <g clip-path="url(#pf67155c8c2)">
     <use xlink:href="#C4_0_b6f331b463" x="79.2" y="276.252632" style="stroke: #000000; stroke-width: 0.3"/>
    </g>
    <g clip-path="url(#pf67155c8c2)">
     <use xlink:href="#C4_0_b6f331b463" x="79.2" y="247.452632" style="stroke: #000000; stroke-width: 0.3"/>
    </g>
    <g clip-path="url(#pf67155c8c2)">
     <use xlink:href="#C4_0_b6f331b463" x="79.2" y="239.115789" style="stroke: #000000; stroke-width: 0.3"/>
    </g>
    <g clip-path="url(#pf67155c8c2)">
     <use xlink:href="#C4_0_b6f331b463" x="79.2" y="177.631579" style="stroke: #000000; stroke-width: 0.3"/>
    </g>
    <g clip-path="url(#pf67155c8c2)">
     <use xlink:href="#C4_0_b6f331b463" x="79.2" y="151.152632" style="stroke: #000000; stroke-width: 0.3"/>
    </g>
    <g clip-path="url(#pf67155c8c2)">
     <use xlink:href="#C4_0_b6f331b463" x="79.2" y="142.815789" style="stroke: #000000; stroke-width: 0.3"/>
    </g>
    <g clip-path="url(#pf67155c8c2)">
     <use xlink:href="#C4_0_b6f331b463" x="93.6" y="159.489474" style="stroke: #000000; stroke-width: 0.3"/>
    </g>
    <g clip-path="url(#pf67155c8c2)">
     <use xlink:href="#C4_0_b6f331b463" x="93.6" y="202.642105" style="stroke: #000000; stroke-width: 0.3"/>
    </g>
    <g clip-path="url(#pf67155c8c2)">
     <use xlink:href="#C4_0_b6f331b463" x="99.710526" y="256.405263" style="stroke: #000000; stroke-width: 0.3"/>
    </g>
    <g clip-path="url(#pf67155c8c2)">
     <use xlink:href="#C4_0_b6f331b463" x="99.615789" y="293.257895" style="fill: #ffffff; stroke: #ffffff; stroke-width: 0.3"/>
    </g>
    <g clip-path="url(#pf67155c8c2)">
     <use xlink:href="#C4_0_b6f331b463" x="93.6" y="338.494737" style="stroke: #000000; stroke-width: 0.3"/>
    </g>
    <g clip-path="url(#pf67155c8c2)">
     <use xlink:href="#C4_0_b6f331b463" x="93.6" y="380.178947" style="stroke: #000000; stroke-width: 0.3"/>
    </g>
    <g clip-path="url(#pf67155c8c2)">
     <use xlink:href="#C4_0_b6f331b463" x="93.6" y="388.515789" style="stroke: #000000; stroke-width: 0.3"/>
    </g>
    <g clip-path="url(#pf67155c8c2)">
     <use xlink:href="#C4_0_b6f331b463" x="93.6" y="396.852632" style="stroke: #000000; stroke-width: 0.3"/>
    </g>
   </g>
   <g id="PathCollection_7">
    <defs>
     <path id="m54cbff76ca" d="M 0.711394 -0.405595 
Q 0.711394 -0.78708 0.553917 -0.996439 
Q 0.39705 -1.206409 0.112614 -1.206409 
Q -0.169379 -1.206409 -0.326857 -0.996439 
Q -0.484334 -0.78708 -0.484334 -0.405595 
Q -0.484334 -0.025941 -0.326857 0.184028 
Q -0.169379 0.393998 0.112614 0.393998 
Q 0.39705 0.393998 0.553917 0.184028 
Q 0.711394 -0.025941 0.711394 -0.405595 
z
M 1.06236 0.422686 
Q 1.06236 0.967752 0.820041 1.233876 
Q 0.578332 1.5 0.078433 1.5 
Q -0.106511 1.5 -0.270702 1.472533 
Q -0.434893 1.445066 -0.589318 1.387691 
L -0.589318 1.04649 
Q -0.434893 1.130112 -0.28413 1.169786 
Q -0.133367 1.210071 0.022889 1.210071 
Q 0.368362 1.210071 0.539878 1.03001 
Q 0.711394 0.849949 0.711394 0.485554 
L 0.711394 0.311597 
Q 0.602747 0.500814 0.433062 0.594201 
Q 0.263377 0.687589 0.026551 0.687589 
Q -0.365921 0.687589 -0.606409 0.388505 
Q -0.846897 0.08881 -0.846897 -0.405595 
Q -0.846897 -0.901221 -0.606409 -1.200305 
Q -0.365921 -1.5 0.026551 -1.5 
Q 0.263377 -1.5 0.433062 -1.406612 
Q 0.602747 -1.313225 0.711394 -1.124619 
L 0.711394 -1.448728 
L 1.06236 -1.448728 
L 1.06236 0.422686 
z
" style="stroke: #000000; stroke-width: 0.3"/>
    </defs>
    <g clip-path="url(#pf67155c8c2)">
     <use xlink:href="#m54cbff76ca" x="79.2" y="396.852632" style="stroke: #000000; stroke-width: 0.3"/>
    </g>
   </g>
   <g id="PathCollection_8"/>
   <g id="PathCollection_9"/>
   <g id="PathCollection_10"/>
   <g id="PathCollection_11"/>
  </g>
 </g>
 <defs>
  <clipPath id="pf67155c8c2">
   <rect x="36" y="72" width="100.8" height="353.652632"/>
  </clipPath>
 </defs>
</svg>
